<svg width="88" height="160" viewBox="0 0 88 160" fill="none" xmlns="http://www.w3.org/2000/svg">
<g clip-path="url(#clip0_7086_4917)">
<rect width="88" height="160" fill="#D5DEF7"/>
<path d="M152 31L-66 160H152V31Z" fill="#ABBCEF"/>
<path d="M16.2383 151.085V145.44L-27.9999 119.553V124.749L16.2383 151.085Z" fill="#95A7C0"/>
<path d="M16.046 145.411L74 111.826V116.849L16.046 151.235V145.411Z" fill="#CAD3DF"/>
<path d="M16.2392 145.44L74 111.826L29.955 86.7129L-27.999 119.553L16.2392 145.44Z" fill="#E7EBF1"/>
<path d="M16.2383 131.459V125.813L-27.9999 99.927V105.017L16.2383 131.459Z" fill="#B4B4B4"/>
<path d="M16.046 125.785L74 92.2V97.2226L16.046 131.609V125.785Z" fill="#C7C6C5"/>
<path d="M16.2392 125.813L74 92.1998L29.955 67.0864L-27.999 99.927L16.2392 125.813Z" fill="#EAEAEA"/>
<path d="M16.2383 112.04V106.394L-27.9999 80.5081V85.7034L16.2383 112.04Z" fill="#969178"/>
<path d="M16.046 106.366L74 72.7808V77.8034L16.046 112.189V106.366Z" fill="#A8A48F"/>
<path d="M16.2392 106.394L74 72.7809L29.955 47.6675L-27.999 80.5081L16.2392 106.394Z" fill="#C1BC9F"/>
<path d="M16.2383 92.0506V86.4049L-27.9999 60.5188V65.7778L16.2383 92.0506Z" fill="#E3A92B"/>
<path d="M16.046 86.3763L74 52.7915V57.8142L16.046 92.2002V86.3763Z" fill="#F0B229"/>
<path d="M16.2392 86.4049L74 52.7916L29.955 27.6782L-27.999 60.5188L16.2392 86.4049Z" fill="#FBD125"/>
<path d="M16.2383 72.3724V66.7267L-27.9999 40.8406V46.2269L16.2383 72.3724Z" fill="#DE6C4A"/>
<path d="M16.046 66.698L74 33.1133V38.136L16.046 72.522V66.698Z" fill="#FFAC84"/>
<path d="M16.2392 66.7267L74 33.1134L29.955 8L-27.999 40.8406L16.2392 66.7267Z" fill="#FFBF9C"/>
</g>
<defs>
<clipPath id="clip0_7086_4917">
<rect width="88" height="160" fill="white"/>
</clipPath>
</defs>
</svg>
