<svg width="88" height="176" viewBox="0 0 88 176" fill="none" xmlns="http://www.w3.org/2000/svg">
<rect width="88" height="176" fill="#ABBCEF"/>
<path fill-rule="evenodd" clip-rule="evenodd" d="M43.4286 80.8571C55.2632 80.8571 64.8571 71.2632 64.8571 59.4286C64.8571 47.5939 55.2632 38 43.4286 38C31.5939 38 22 47.5939 22 59.4286C22 71.2632 31.5939 80.8571 43.4286 80.8571ZM51.4643 82.6429H34.5V138H51.4643V82.6429Z" fill="#D5DEF7"/>
<g opacity="0.5">
<mask id="path-2-outside-1_7178_960" maskUnits="userSpaceOnUse" x="12" y="28" width="63" height="120" fill="black">
<rect fill="white" x="12" y="28" width="63" height="120"/>
<path fill-rule="evenodd" clip-rule="evenodd" d="M51.4643 79.2995C59.3174 76.1206 64.8571 68.4215 64.8571 59.4286C64.8571 47.5939 55.2632 38 43.4286 38C31.5939 38 22 47.5939 22 59.4286C22 68.4215 27.5397 76.1206 35.3929 79.2995V138H51.4643V79.2995Z"/>
</mask>
<path d="M51.4643 79.2995L47.7121 70.0301L41.4643 72.5592V79.2995H51.4643ZM35.3929 79.2995H45.3929V72.5592L39.145 70.0301L35.3929 79.2995ZM35.3929 138H25.3929V148H35.3929V138ZM51.4643 138V148H61.4643V138H51.4643ZM54.8571 59.4286C54.8571 64.2091 51.9189 68.3273 47.7121 70.0301L55.2164 88.5689C66.7159 83.914 74.8571 72.634 74.8571 59.4286H54.8571ZM43.4286 48C49.7404 48 54.8571 53.1167 54.8571 59.4286H74.8571C74.8571 42.0711 60.7861 28 43.4286 28V48ZM32 59.4286C32 53.1167 37.1167 48 43.4286 48V28C26.0711 28 12 42.0711 12 59.4286H32ZM39.145 70.0301C34.9383 68.3273 32 64.2091 32 59.4286H12C12 72.634 20.1412 83.914 31.6407 88.5689L39.145 70.0301ZM45.3929 138V79.2995H25.3929V138H45.3929ZM51.4643 128H35.3929V148H51.4643V128ZM41.4643 79.2995V138H61.4643V79.2995H41.4643Z" fill="#829BE6" mask="url(#path-2-outside-1_7178_960)"/>
</g>
<path d="M79.3479 118.787L51.612 84.2341L39.4717 94.1332L52.6392 110.382L54.2268 109.075L58.7094 114.772L56.8417 116.172L60.1102 120.282L62.1647 118.787L65.0597 122.336L63.0052 124.017L66.7407 128.313L78.1339 130.741L79.3479 118.787Z" fill="#2E58D6"/>
<path fill-rule="evenodd" clip-rule="evenodd" d="M7.99999 72.9343C7.99999 86.7052 19.1635 97.8687 32.9343 97.8687C46.7052 97.8687 57.8686 86.7052 57.8686 72.9343C57.8686 59.1635 46.7052 48 32.9343 48C19.1635 48 7.99999 59.1635 7.99999 72.9343ZM22.0355 63.7901C22.0355 66.0509 23.8683 67.8838 26.1292 67.8838C28.3901 67.8838 30.2229 66.0509 30.2229 63.7901C30.2229 61.5292 28.3901 59.6963 26.1292 59.6963C23.8683 59.6963 22.0355 61.5292 22.0355 63.7901Z" fill="#2E58D6"/>
<mask id="path-6-inside-2_7178_960" fill="white">
<path d="M32.9343 97.8687C19.1635 97.8687 8 86.7052 8 72.9343C8 59.1635 19.1635 48 32.9343 48C46.7052 48 57.8687 59.1635 57.8687 72.9343C57.8687 86.7052 46.7052 97.8687 32.9343 97.8687Z"/>
</mask>
<path d="M32.9343 93.8687C21.3726 93.8687 12 84.496 12 72.9343L4 72.9343C4 88.9143 16.9543 101.869 32.9343 101.869L32.9343 93.8687ZM12 72.9343C12 61.3726 21.3726 52 32.9343 52L32.9343 44C16.9543 44 4 56.9543 4 72.9343L12 72.9343ZM32.9343 52C44.496 52 53.8687 61.3726 53.8687 72.9343L61.8687 72.9343C61.8687 56.9543 48.9143 44 32.9343 44L32.9343 52ZM53.8687 72.9343C53.8687 84.496 44.496 93.8687 32.9343 93.8687L32.9343 101.869C48.9143 101.869 61.8687 88.9143 61.8687 72.9343L53.8687 72.9343Z" fill="#5879DE" mask="url(#path-6-inside-2_7178_960)"/>
<path d="M53.4793 86.5687L40.8721 96.0942L48.2496 104.966L53.7996 99.8297L78.0401 130.554L79.3475 118.787L53.4793 86.5687Z" fill="#5879DE"/>
</svg>
