<svg xmlns="http://www.w3.org/2000/svg" width="27" height="27" viewBox="0 0 27 27">
    <g fill="none" fill-rule="evenodd">
        <g stroke="#BEC4CB" stroke-linecap="square">
            <path d="M13 .5v26M.5 13.5h26M3.954 4.661L22.34 23.046M4.308 22.692L22.692 4.308"/>
        </g>
        <circle cx="13.5" cy="13.5" r="10.5" fill="#FFF"/>
        <path fill="#BEC4CB" d="M17.375 8.625h2.844c.118 0 .216.038.292.114a.395.395 0 0 1 .114.292v1.55c0 .507-.178 1.01-.533 1.51-.356.5-.842.94-1.46 1.32a5.856 5.856 0 0 1-2.07.775c-.321.694-.727 1.26-1.218 1.7-.457.39-.931.652-1.422.788v2.107h1.625c.288 0 .529.098.723.292a.983.983 0 0 1 .292.724c0 .05-.02.097-.063.14a.194.194 0 0 1-.14.063h-6.093a.194.194 0 0 1-.14-.064.194.194 0 0 1-.064-.14c0-.287.098-.528.292-.723a.983.983 0 0 1 .724-.292h1.625v-2.107c-.49-.136-.965-.398-1.422-.787-.49-.44-.897-1.007-1.219-1.701a5.856 5.856 0 0 1-2.069-.775c-.618-.38-1.104-.82-1.46-1.32-.355-.5-.533-1.003-.533-1.51V9.03c0-.118.038-.216.114-.292a.395.395 0 0 1 .292-.114H9.25V7.406c0-.118.038-.216.114-.292A.395.395 0 0 1 9.656 7h7.313c.118 0 .216.038.292.114a.395.395 0 0 1 .114.292v1.219zM7.219 10.58c0 .372.22.779.66 1.219.44.44.999.778 1.676 1.015-.203-.829-.305-1.82-.305-2.97H7.219v.736zm6.093 4.951c.458 0 .898-.211 1.32-.635.458-.44.813-1.057 1.067-1.853.305-.863.457-1.862.457-2.996V8.219H10.47v1.828c0 1.117.144 2.107.431 2.97.271.796.627 1.414 1.067 1.854.44.44.888.66 1.345.66zm6.094-4.95v-.737h-2.031c0 1.15-.102 2.141-.305 2.97.677-.237 1.236-.575 1.676-1.015.44-.44.66-.847.66-1.219z"/>
    </g>
</svg>
