<?xml version="1.0" encoding="UTF-8"?>
<svg width="18px" height="18px" viewBox="0 0 18 18" version="1.1" xmlns="http://www.w3.org/2000/svg" xmlns:xlink="http://www.w3.org/1999/xlink">
    <!-- Generator: sketchtool 51.2 (57519) - http://www.bohemiancoding.com/sketch -->
    <title>81FAEA49-8BE6-4C53-B47A-3D2889DAE53E</title>
    <desc>Created with sketchtool.</desc>
    <defs></defs>
    <g id="Page-1" stroke="none" stroke-width="1" fill="none" fill-rule="evenodd">
        <g id="2-RFQ-16---Create-New---Add-Parts---Parts-Library" transform="translate(-1329.000000, -77.000000)" fill="#4A90E2">
            <g id="@Icons/Close-3" transform="translate(1329.000000, 77.000000)">
                <path d="M12.524429,10.6981438 C12.524429,10.5086972 12.457632,10.3303945 12.3240381,10.1966674 L10.6875127,8.55851129 L12.3240381,6.92035516 C12.457632,6.78662813 12.524429,6.60832542 12.524429,6.41887879 C12.524429,6.22943216 12.457632,6.05112946 12.3240381,5.91740243 L11.1884899,4.78072266 C11.054896,4.64699563 10.8767708,4.58013211 10.6875127,4.58013211 C10.4982547,4.58013211 10.3201295,4.64699563 10.1865356,4.78072266 L8.55001019,6.41887879 L6.9134848,4.78072266 C6.77989089,4.64699563 6.60176568,4.58013211 6.41250764,4.58013211 C6.22324961,4.58013211 6.04512439,4.64699563 5.91153048,4.78072266 L4.77598226,5.91740243 C4.64238835,6.05112946 4.57559139,6.22943216 4.57559139,6.41887879 C4.57559139,6.60832542 4.64238835,6.78662813 4.77598226,6.92035516 L6.41250764,8.55851129 L4.77598226,10.1966674 C4.64238835,10.3303945 4.57559139,10.5086972 4.57559139,10.6981438 C4.57559139,10.8875904 4.64238835,11.0658931 4.77598226,11.1996202 L5.91153048,12.3362999 C6.04512439,12.470027 6.22324961,12.5368905 6.41250764,12.5368905 C6.60176568,12.5368905 6.77989089,12.470027 6.9134848,12.3362999 L8.55001019,10.6981438 L10.1865356,12.3362999 C10.3201295,12.470027 10.4982547,12.5368905 10.6875127,12.5368905 C10.8767708,12.5368905 11.054896,12.470027 11.1884899,12.3362999 L12.3240381,11.1996202 C12.457632,11.0658931 12.524429,10.8875904 12.524429,10.6981438 L12.524429,10.6981438 Z" id="Path"></path>
                <path d="M17.1000204,8.55851129 C17.1000204,13.2835331 13.2703283,17.1170413 8.55001019,17.1170413 C3.82969207,17.1170413 0,13.2835331 0,8.55851129 C0,3.83348952 3.82969207,-1.87046762e-05 8.55001019,-1.87046762e-05 C13.2703283,-1.87046762e-05 17.1000204,3.83348952 17.1000204,8.55851129 Z M14.250017,8.55851129 C14.250017,5.41592606 11.6894671,2.85282463 8.55001019,2.85282463 C5.41055332,2.85282463 2.8500034,5.41592606 2.8500034,8.55851129 C2.8500034,11.7010965 5.41055332,14.264198 8.55001019,14.264198 C11.6894671,14.264198 14.250017,11.7010965 14.250017,8.55851129 Z" id="Path"></path>
            </g>
        </g>
    </g>
</svg>