<?xml version="1.0" encoding="UTF-8"?>
<svg width="15px" height="16px" viewBox="0 0 15 16" version="1.1" xmlns="http://www.w3.org/2000/svg" xmlns:xlink="http://www.w3.org/1999/xlink">
    <!-- Generator: Sketch 51.3 (57544) - http://www.bohemiancoding.com/sketch -->
    <title></title>
    <desc>Created with Sketch.</desc>
    <defs></defs>
    <g id="Page-1" stroke="none" stroke-width="1" fill="none" fill-rule="evenodd">
        <g id="2-RFQ-31---My-RFQs-Copy" transform="translate(-503.000000, -302.000000)" fill="#ED4141">
            <g id="CArd" transform="translate(275.000000, 155.000000)">
                <g id="Group-Copy-2" transform="translate(19.000000, 138.000000)">
                    <path d="M219.206788,12.4006802 C220.144266,12.4006802 221.286816,12.0881877 222.63444,11.4632029 C222.927401,11.3264873 223.220363,11.3460183 223.513325,11.5217953 C223.806286,11.6975723 223.952767,11.9612378 223.952767,12.3127917 L223.952767,19.43176 C223.952767,19.7637831 223.816052,20.0176834 223.542621,20.1934604 C222.390305,20.9942221 221.198928,21.3946032 219.968489,21.3946032 C219.49975,21.3946032 219.01148,21.3360108 218.50368,21.2188262 C218.210719,21.1602338 217.790807,21.0332839 217.243945,20.837976 C216.775207,20.6817299 216.423653,20.5743105 216.189283,20.5157182 C215.798668,20.4180644 215.437348,20.3692373 215.105325,20.3692373 C213.894417,20.3692373 212.781163,20.5938414 211.765562,21.0430492 L211.765562,23.7968888 C211.765562,23.9921967 211.697205,24.158208 211.560489,24.2949236 C211.423773,24.4316392 211.257762,24.4999967 211.062454,24.4999967 L210.593716,24.4999967 C210.398408,24.4999967 210.232396,24.4316392 210.095681,24.2949236 C209.958965,24.158208 209.890608,23.9921967 209.890608,23.7968888 L209.890608,12.4885687 C209.675769,12.3323227 209.504875,12.1370147 209.377925,11.9026454 C209.250975,11.6682761 209.1875,11.4143758 209.1875,11.1409451 C209.1875,10.6722065 209.353511,10.2767082 209.685534,9.95445039 C210.017557,9.63219257 210.417939,9.4808289 210.886677,9.50035982 C211.316354,9.51989075 211.682556,9.67613682 211.985283,9.96909848 C212.28801,10.2620601 212.449139,10.6136141 212.46867,11.0237604 C212.488201,11.2776607 212.449139,11.51203 212.351485,11.7268684 C212.996001,11.4924991 213.660048,11.3753144 214.343625,11.3753144 C214.812363,11.3753144 215.300633,11.4339068 215.808433,11.5510914 C216.101395,11.6292147 216.521306,11.7561646 217.068168,11.9319416 C217.536907,12.0881877 217.888461,12.1956071 218.12283,12.2541994 C218.513446,12.3518531 218.874765,12.4006802 219.206788,12.4006802 Z" id=""></path>
                </g>
            </g>
        </g>
    </g>
</svg>