<?xml version="1.0" encoding="UTF-8"?>
<svg width="17px" height="16px" viewBox="0 0 17 16" version="1.1" xmlns="http://www.w3.org/2000/svg" xmlns:xlink="http://www.w3.org/1999/xlink">
    <!-- Generator: Sketch 51.3 (57544) - http://www.bohemiancoding.com/sketch -->
    <title> copy</title>
    <desc>Created with Sketch.</desc>
    <defs></defs>
    <g id="Page-1" stroke="none" stroke-width="1" fill="none" fill-rule="evenodd">
        <g id="2-RFQ-39---My-RFQs" transform="translate(-1003.000000, -302.000000)" fill="#2E58D6">
            <g id="CArd" transform="translate(275.000000, 155.000000)">
                <g id="Group-Copy-3" transform="translate(541.000000, 138.000000)">
                    <path d="M202.598786,14.509781 C202.852692,14.5488432 203.052887,14.6660305 203.199371,14.8613428 C203.345855,15.056655 203.414214,15.2714982 203.404448,15.5058728 C203.394683,15.7402473 203.30191,15.945325 203.126129,16.121106 L200.020666,19.1386782 L200.753086,23.4160137 C200.792149,23.6503882 200.748203,23.8701144 200.621251,24.0751921 C200.494298,24.2802698 200.313634,24.4121055 200.07926,24.4706991 C199.844885,24.5292928 199.620276,24.4999959 199.405433,24.3828087 L195.56755,22.390625 L191.729666,24.3828087 C191.514823,24.4999959 191.290214,24.5292928 191.05584,24.4706991 C190.821465,24.4121055 190.640801,24.2802698 190.513848,24.0751921 C190.386896,23.8701144 190.34295,23.6503882 190.382013,23.4160137 L191.114433,19.1386782 L188.00897,16.121106 C187.83319,15.945325 187.740416,15.7402473 187.730651,15.5058728 C187.720885,15.2714982 187.789244,15.056655 187.935728,14.8613428 C188.082213,14.6660305 188.282407,14.5488432 188.536313,14.509781 L192.813649,13.8945478 L194.717942,10.0273678 C194.835129,9.79299324 195.006027,9.63674369 195.230636,9.55861869 C195.455245,9.4804937 195.679854,9.4804937 195.904463,9.55861869 C196.129072,9.63674369 196.29997,9.79299324 196.417157,10.0273678 L198.32145,13.8945478 L202.598786,14.509781 Z M198.526528,18.6406323 L201.45621,15.7695441 L197.383952,15.1836078 L195.56755,11.4922087 L193.751147,15.1836078 L189.678889,15.7695441 L192.608571,18.6406323 L191.934744,22.71289 L195.56755,20.7793 L199.200355,22.71289 L198.526528,18.6406323 Z" id="-copy"></path>
                </g>
            </g>
        </g>
    </g>
</svg>