<?xml version="1.0" encoding="UTF-8"?>
<svg width="17px" height="16px" viewBox="0 0 17 16" version="1.1" xmlns="http://www.w3.org/2000/svg" xmlns:xlink="http://www.w3.org/1999/xlink">
    <!-- Generator: Sketch 51.3 (57544) - http://www.bohemiancoding.com/sketch -->
    <title></title>
    <desc>Created with Sketch.</desc>
    <defs></defs>
    <g id="Page-1" stroke="none" stroke-width="1" fill="none" fill-rule="evenodd">
        <g id="2-RFQ-31---My-RFQs-Copy" transform="translate(-1023.000000, -302.000000)" fill="#81DB6D">
            <g id="CArd" transform="translate(275.000000, 155.000000)">
                <g id="Group-Copy-3" transform="translate(541.000000, 138.000000)">
                    <path d="M222.630831,14.5390778 C222.865205,14.5586092 223.055634,14.6660305 223.202119,14.8613428 C223.348603,15.0566551 223.421845,15.2714983 223.421845,15.5058728 C223.421845,15.7402473 223.324189,15.9453251 223.128876,16.121106 L220.023414,19.1386783 L220.755834,23.4160138 C220.814428,23.7089819 220.746069,23.9628878 220.550756,24.177731 C220.355444,24.3925742 220.12107,24.499996 219.847633,24.499996 C219.691383,24.499996 219.544899,24.4609338 219.408181,24.3828088 L215.570297,22.3906251 L211.732414,24.3828088 C211.595695,24.4609338 211.449211,24.499996 211.292962,24.499996 C211.019525,24.499996 210.78515,24.3925742 210.589838,24.177731 C210.394526,23.9628878 210.326167,23.7089819 210.38476,23.4160138 L211.117181,19.1386783 L208.011718,16.121106 C207.816406,15.9453251 207.71875,15.7402473 207.71875,15.5058728 C207.71875,15.2714983 207.791992,15.0566551 207.938476,14.8613428 C208.08496,14.6660305 208.27539,14.5488432 208.509764,14.509781 L212.816396,13.8945478 L214.72069,10.0273678 C214.818346,9.85158685 214.940416,9.71975117 215.0869,9.63186072 C215.233384,9.54397026 215.394516,9.50002503 215.570297,9.50002503 C215.746078,9.50002503 215.907211,9.54397026 216.053695,9.63186072 C216.200179,9.71975117 216.322249,9.85158685 216.419905,10.0273678 L218.324198,13.8945478 L222.630831,14.5390778 Z M219.056619,18.1425864 L221.458958,15.7695442 L217.3867,15.1836078 L215.570297,11.4922087 L215.570297,20.7793001 L219.203103,22.7128901 L218.529276,18.6406324 L219.056619,18.1425864 Z" id=""></path>
                </g>
            </g>
        </g>
    </g>
</svg>