<?xml version="1.0" encoding="UTF-8"?>
<svg width="17px" height="16px" viewBox="0 0 17 16" version="1.1" xmlns="http://www.w3.org/2000/svg" xmlns:xlink="http://www.w3.org/1999/xlink">
    <!-- Generator: Sketch 51.3 (57544) - http://www.bohemiancoding.com/sketch -->
    <title></title>
    <desc>Created with Sketch.</desc>
    <defs></defs>
    <g id="Page-1" stroke="none" stroke-width="1" fill="none" fill-rule="evenodd">
        <g id="2-RFQ-39---My-RFQs" transform="translate(-1024.000000, -302.000000)" fill="#2E58D6">
            <g id="CArd" transform="translate(275.000000, 155.000000)">
                <g id="Group-Copy-3" transform="translate(541.000000, 138.000000)">
                    <path d="M215.717942,10.0273678 C215.835129,9.79299324 216.006027,9.63674369 216.230636,9.55861869 C216.455245,9.4804937 216.679854,9.4804937 216.904463,9.55861869 C217.129072,9.63674369 217.29997,9.79299324 217.417157,10.0273678 L219.32145,13.8945478 L223.598786,14.509781 C223.852692,14.5488432 224.052887,14.6660305 224.199371,14.8613428 C224.345855,15.056655 224.414214,15.2714982 224.404448,15.5058728 C224.394683,15.7402473 224.30191,15.945325 224.126129,16.121106 L221.020666,19.1386782 L221.753086,23.4160137 C221.792149,23.6503882 221.748203,23.8701144 221.621251,24.0751921 C221.494298,24.2802698 221.313634,24.4121055 221.07926,24.4706991 C220.844885,24.5292928 220.620276,24.4999959 220.405433,24.3828087 L216.56755,22.390625 L212.729666,24.3828087 C212.514823,24.4999959 212.290214,24.5292928 212.05584,24.4706991 C211.821465,24.4121055 211.640801,24.2802698 211.513848,24.0751921 C211.386896,23.8701144 211.34295,23.6503882 211.382013,23.4160137 L212.114433,19.1386782 L209.00897,16.121106 C208.83319,15.945325 208.740416,15.7402473 208.730651,15.5058728 C208.720885,15.2714982 208.789244,15.056655 208.935728,14.8613428 C209.082213,14.6660305 209.282407,14.5488432 209.536313,14.509781 L213.813649,13.8945478 L215.717942,10.0273678 Z" id=""></path>
                </g>
            </g>
        </g>
    </g>
</svg>