<?xml version="1.0" encoding="UTF-8"?>
<svg width="14px" height="13px" viewBox="0 0 14 13" version="1.1" xmlns="http://www.w3.org/2000/svg" xmlns:xlink="http://www.w3.org/1999/xlink">
    <!-- Generator: Sketch 51.3 (57544) - http://www.bohemiancoding.com/sketch -->
    <title></title>
    <desc>Created with Sketch.</desc>
    <defs></defs>
    <g id="Page-1" stroke="none" stroke-width="1" fill="none" fill-rule="evenodd">
        <g id="2-RFQ-39---My-RFQs" transform="translate(-762.000000, -303.000000)" fill="#F8E71C">
            <g id="CArd" transform="translate(275.000000, 155.000000)">
                <g id="Group-Copy" transform="translate(280.000000, 138.000000)">
                    <path d="M219.687474,10.2500232 C220.052056,10.2500232 220.361952,10.3776273 220.617159,10.632835 C220.872367,10.8880426 220.999971,11.1979381 220.999971,11.5625205 L220.999971,18.1250069 C220.999971,18.9088596 220.804008,19.6380245 220.412082,20.3125024 C220.020155,20.9869803 219.486953,21.5201823 218.812476,21.9121085 C218.137998,22.3040346 217.408833,22.4999979 216.62498,22.4999979 L216.406231,22.4999979 C216.223939,22.4999979 216.068992,22.4361961 215.941388,22.308592 C215.813784,22.180988 215.749982,22.0260407 215.749982,21.8437492 L215.749982,20.5312519 C215.749982,20.3489605 215.813784,20.1940132 215.941388,20.0664092 C216.068992,19.9388051 216.223939,19.8750033 216.406231,19.8750033 L216.62498,19.8750033 C217.098937,19.8750033 217.509093,19.7018267 217.855446,19.3554731 C218.2018,19.0091195 218.374976,18.5989641 218.374976,18.1250069 L218.374976,16.3750106 L216.187481,16.3750106 C215.822899,16.3750106 215.513003,16.2474065 215.257795,15.9921989 C215.002588,15.7369912 214.874984,15.4270957 214.874984,15.0625133 L214.874984,11.5625205 C214.874984,11.1979381 215.002588,10.8880426 215.257795,10.632835 C215.513003,10.3776273 215.822899,10.2500232 216.187481,10.2500232 L219.687474,10.2500232 Z M211.81249,10.2500232 C212.177072,10.2500232 212.486968,10.3776273 212.742176,10.632835 C212.997383,10.8880426 213.124987,11.1979381 213.124987,11.5625205 L213.124987,18.1250069 C213.124987,18.9088596 212.929024,19.6380245 212.537098,20.3125024 C212.145172,20.9869803 211.61197,21.5201823 210.937492,21.9121085 C210.263014,22.3040346 209.533849,22.4999979 208.749996,22.4999979 L208.531247,22.4999979 C208.348955,22.4999979 208.194008,22.4361961 208.066404,22.308592 C207.9388,22.180988 207.874998,22.0260407 207.874998,21.8437492 L207.874998,20.5312519 C207.874998,20.3489605 207.9388,20.1940132 208.066404,20.0664092 C208.194008,19.9388051 208.348955,19.8750033 208.531247,19.8750033 L208.749996,19.8750033 C209.223954,19.8750033 209.634109,19.7018267 209.980463,19.3554731 C210.326816,19.0091195 210.499993,18.5989641 210.499993,18.1250069 L210.499993,16.3750106 L208.312497,16.3750106 C207.947915,16.3750106 207.638019,16.2474065 207.382812,15.9921989 C207.127604,15.7369912 207,15.4270957 207,15.0625133 L207,11.5625205 C207,11.1979381 207.127604,10.8880426 207.382812,10.632835 C207.638019,10.3776273 207.947915,10.2500232 208.312497,10.2500232 L211.81249,10.2500232 Z" id=""></path>
                </g>
            </g>
        </g>
    </g>
</svg>