<?xml version="1.0" encoding="UTF-8"?>
<svg width="17px" height="16px" viewBox="0 0 17 16" version="1.1" xmlns="http://www.w3.org/2000/svg" xmlns:xlink="http://www.w3.org/1999/xlink">
    <!-- Generator: Sketch 51.3 (57544) - http://www.bohemiancoding.com/sketch -->
    <title>Group 4</title>
    <desc>Created with Sketch.</desc>
    <defs></defs>
    <g id="Page-1" stroke="none" stroke-width="1" fill="none" fill-rule="evenodd">
        <g id="2-RFQ-39---My-RFQs" transform="translate(-1002.000000, -302.000000)" fill="#2E58D6">
            <g id="CArd" transform="translate(275.000000, 155.000000)">
                <g id="Group-Copy-3" transform="translate(541.000000, 138.000000)">
                    <g id="Group-4" transform="translate(186.000000, 9.000000)">
                        <path d="M15.5987859,5.50978096 C15.8526918,5.54884323 16.0528866,5.66603051 16.1993707,5.86134278 C16.3458548,6.05665505 16.4142139,6.27149823 16.4044484,6.50587278 C16.394683,6.74024732 16.3019095,6.94532505 16.1261286,7.12110596 L13.0206659,10.1386782 L13.7530864,14.4160137 C13.7921486,14.6503882 13.7482034,14.8701144 13.6212507,15.0751921 C13.494298,15.2802698 13.3136341,15.4121055 13.0792596,15.4706991 C12.844885,15.5292928 12.6202759,15.4999959 12.4054327,15.3828087 L8.56754956,13.390625 L4.72966638,15.3828087 C4.5148232,15.4999959 4.29021411,15.5292928 4.05583956,15.4706991 C3.82146502,15.4121055 3.64080116,15.2802698 3.51384843,15.0751921 C3.3868957,14.8701144 3.34295047,14.6503882 3.38201275,14.4160137 L4.1144332,10.1386782 L1.00897048,7.12110596 C0.833189568,6.94532505 0.740416162,6.74024732 0.730650705,6.50587278 C0.720885248,6.27149823 0.789244341,6.05665505 0.935728432,5.86134278 C1.08221252,5.66603051 1.2824073,5.54884323 1.5363132,5.50978096 L5.81364865,4.89454778 L7.71794183,1.02736778 C7.8351291,0.792993238 8.00602706,0.63674369 8.23063615,0.558618693 C8.45524524,0.480493695 8.67985388,0.480493695 8.90446297,0.558618693 C9.12907205,0.63674369 9.29997001,0.792993238 9.41715728,1.02736778 L11.3214505,4.89454778 L15.5987859,5.50978096 Z M11.5265282,9.64063232 L14.45621,6.76954414 L10.3839523,6.18360778 L8.56754956,2.49220869 L6.75114683,6.18360778 L2.67888911,6.76954414 L5.60857093,9.64063232 L4.93474411,13.71289 L8.56754956,11.7793 L12.200355,13.71289 L11.5265282,9.64063232 Z" id="-copy"></path>
                        <polygon id="Path-2" fill-rule="nonzero" points="6 6 2 6 2 7 5 10 4 14 5 14 9 13 11 14 11 6 9 2 8 2"></polygon>
                    </g>
                </g>
            </g>
        </g>
    </g>
</svg>