<?xml version="1.0" encoding="UTF-8"?>
<svg width="12px" height="16px" viewBox="0 0 12 16" version="1.1" xmlns="http://www.w3.org/2000/svg" xmlns:xlink="http://www.w3.org/1999/xlink">
    <!-- Generator: Sketch 51.3 (57544) - http://www.bohemiancoding.com/sketch -->
    <title></title>
    <desc>Created with Sketch.</desc>
    <defs></defs>
    <g id="Page-1" stroke="none" stroke-width="1" fill="none" fill-rule="evenodd">
        <g id="2-RFQ-31---My-RFQs-Copy" transform="translate(-764.000000, -302.000000)" fill="#F8E71C">
            <g id="CArd" transform="translate(275.000000, 155.000000)">
                <g id="Group-Copy" transform="translate(280.000000, 138.000000)">
                    <path d="M220.281229,10.9062723 C220.281229,12.1367387 220.046855,13.2890801 219.578106,14.3632969 C219.070294,15.5351696 218.357405,16.4140742 217.439438,17.0000105 C218.357405,17.5859469 219.070294,18.4648515 219.578106,19.6367242 C220.046855,20.710941 220.281229,21.8632824 220.281229,23.0937488 L220.398416,23.0937488 C220.496072,23.0937488 220.57908,23.1279285 220.647439,23.1962876 C220.715798,23.2646467 220.749978,23.3476547 220.749978,23.4453106 L220.749978,24.1484342 C220.749978,24.2460901 220.715798,24.3290981 220.647439,24.3974572 C220.57908,24.4658163 220.496072,24.499996 220.398416,24.499996 L209.851562,24.499996 C209.753906,24.499996 209.670898,24.4658163 209.602539,24.3974572 C209.53418,24.3290981 209.5,24.2460901 209.5,24.1484342 L209.5,23.4453106 C209.5,23.3476547 209.53418,23.2646467 209.602539,23.1962876 C209.670898,23.1279285 209.753906,23.0937488 209.851562,23.0937488 L209.968749,23.0937488 C209.968749,21.8632824 210.203124,20.710941 210.671873,19.6367242 C211.179684,18.4648515 211.892574,17.5859469 212.81054,17.0000105 C211.892574,16.4140742 211.179684,15.5351696 210.671873,14.3632969 C210.203124,13.2890801 209.968749,12.1367387 209.968749,10.9062723 L209.851562,10.9062723 C209.753906,10.9062723 209.670898,10.8720925 209.602539,10.8037335 C209.53418,10.7353744 209.5,10.6523664 209.5,10.5547105 L209.5,9.85158685 C209.5,9.75393094 209.53418,9.67092299 209.602539,9.6025639 C209.670898,9.5342048 209.753906,9.50002503 209.851562,9.50002503 L220.398416,9.50002503 C220.496072,9.50002503 220.57908,9.5342048 220.647439,9.6025639 C220.715798,9.67092299 220.749978,9.75393094 220.749978,9.85158685 L220.749978,10.5547105 C220.749978,10.6523664 220.715798,10.7353744 220.647439,10.8037335 C220.57908,10.8720925 220.496072,10.9062723 220.398416,10.9062723 L220.281229,10.9062723 Z M211.374996,10.9062723 C211.374996,11.8828328 211.541012,12.7812687 211.873042,13.6015796 C212.205073,14.4218905 212.659173,15.076186 213.235344,15.5644664 C213.811515,16.0527469 214.441397,16.2968869 215.124989,16.2968869 C215.808581,16.2968869 216.438463,16.0527469 217.014634,15.5644664 C217.590805,15.076186 218.044906,14.4218905 218.376936,13.6015796 C218.708966,12.7812687 218.874982,11.8828328 218.874982,10.9062723 L211.374996,10.9062723 Z M218.874982,23.0937488 C218.874982,22.1171883 218.708966,21.2187524 218.376936,20.3984415 C218.044906,19.5781305 217.590805,18.9238351 217.014634,18.4355546 C216.438463,17.9472742 215.808581,17.7031342 215.124989,17.7031342 C214.441397,17.7031342 213.811515,17.9472742 213.235344,18.4355546 C212.659173,18.9238351 212.205073,19.5781305 211.873042,20.3984415 C211.541012,21.2187524 211.374996,22.1171883 211.374996,23.0937488 L218.874982,23.0937488 Z" id=""></path>
                </g>
            </g>
        </g>
    </g>
</svg>