<svg width="38" height="23" viewBox="0 0 38 23" fill="none" xmlns="http://www.w3.org/2000/svg">
<g clip-path="url(#clip0_597_23434)">
<path d="M36.9114 5.45693V3.23476C36.9114 1.72469 35.6867 0.5 34.1767 0.5H3.10512C1.59505 0.5 0.370361 1.72469 0.370361 3.23476V5.45693H36.9114Z" fill="#A0A0A0"/>
<path d="M0.597534 8.20276V19.7652C0.597534 21.2753 1.82222 22.5 3.33229 22.5H34.4038C35.9139 22.5 37.1386 21.2753 37.1386 19.7652V8.20276H0.597534Z" fill="#EBEBEB"/>
<path d="M30.1757 16.6065H28.9676C28.9344 16.6065 28.9039 16.576 28.9039 16.5428V16.1078C28.9039 15.8778 29.0729 15.7115 29.3084 15.7115H33.3898C33.6973 15.7115 33.9855 15.9942 33.9855 16.2962V16.5649C33.9855 16.5899 33.9661 16.6065 33.9412 16.6065H32.3895C32.3646 16.6065 32.3452 16.6259 32.3452 16.6508L32.3535 17.036C32.3535 17.0692 32.384 17.0969 32.4172 17.0969H33.9162C33.9495 17.0969 33.98 17.1274 33.98 17.1607V17.64C33.98 17.6649 33.9606 17.6816 33.9356 17.6816H32.5613C32.5613 17.6816 32.5447 17.6816 32.5364 17.676L30.1951 16.6121C30.1951 16.6121 30.1785 16.6065 30.1701 16.6065H30.1757ZM32.6389 18.1665L30.2976 17.1025C30.2976 17.1025 30.281 17.0969 30.2727 17.0969H28.9482C28.9233 17.0969 28.9039 17.1136 28.9039 17.1385V17.6178C28.9039 17.6511 28.9344 17.6816 28.9676 17.6816H30.4361C30.4694 17.6816 30.4999 17.7121 30.4999 17.7453L30.4916 18.1304C30.4916 18.1554 30.4722 18.172 30.4472 18.172H28.9455C28.9205 18.172 28.9011 18.1886 28.9011 18.2136V18.5017C28.9011 18.8037 29.1865 19.0864 29.4968 19.0864H33.5782C33.8137 19.0864 33.9827 18.9201 33.9827 18.6901V18.2357C33.9827 18.2025 33.9523 18.172 33.919 18.172H32.6611C32.6611 18.172 32.6444 18.172 32.6361 18.1665H32.6389Z" fill="#A0A0A0"/>
<path d="M3.41821 19.5643V15.2585H5.10591L5.99149 17.3331C6.0261 17.4043 6.06275 17.498 6.10754 17.616C6.15232 17.7341 6.19711 17.8563 6.24597 17.9866C6.29483 18.1168 6.33758 18.2308 6.37423 18.3306H6.41902C6.45363 18.239 6.49231 18.1331 6.53913 18.011C6.58596 17.8888 6.63074 17.7687 6.67757 17.6486C6.72439 17.5265 6.76307 17.4247 6.79768 17.3412L7.68937 15.2606H9.33432V19.5663H8.25533V17.0969C8.25533 17.0175 8.25533 16.93 8.2594 16.8343C8.2594 16.7386 8.26347 16.6449 8.26958 16.5513C8.27365 16.4597 8.27569 16.3782 8.27569 16.307H8.22479C8.20444 16.3782 8.17593 16.4617 8.13929 16.5574C8.10264 16.6531 8.06804 16.7488 8.03546 16.8465C8.00085 16.9422 7.97032 17.0256 7.94181 17.0969L6.87504 19.5663H5.84492L4.77814 17.0969C4.73539 17.0012 4.69671 16.9035 4.65803 16.8058C4.61935 16.7081 4.58881 16.6144 4.56031 16.5269C4.53384 16.4393 4.50941 16.366 4.48702 16.307H4.43612C4.4402 16.362 4.44427 16.4332 4.4463 16.5208C4.44834 16.6083 4.45038 16.7019 4.45241 16.8037C4.45445 16.9035 4.45648 17.0032 4.45648 17.0989V19.5684H3.42025L3.41821 19.5643Z" fill="#00457C"/>
<path d="M9.98169 19.5643V15.2585H14.1429V16.1116H11.0668V17.0826H13.8274V17.9418H11.0668V19.5643H9.98169Z" fill="#00457C"/>
<path d="M16.8852 19.6416C16.0139 19.6416 15.3604 19.4584 14.9247 19.0899C14.487 18.7234 14.2692 18.1636 14.2692 17.4164C14.2692 16.9278 14.3811 16.5166 14.6051 16.1848C14.829 15.8529 15.1527 15.6025 15.5782 15.4356C16.0037 15.2686 16.5126 15.1852 17.1071 15.1852C17.4837 15.1852 17.8298 15.2178 18.1454 15.2829C18.4609 15.348 18.7358 15.4478 18.9699 15.5801C19.204 15.7145 19.3852 15.8814 19.5094 16.0809C19.6356 16.2825 19.6967 16.5186 19.6967 16.7894H18.6421C18.6421 16.651 18.6014 16.5349 18.52 16.4392C18.4385 16.3436 18.3286 16.2662 18.1881 16.2072C18.0477 16.1481 17.8889 16.1054 17.7117 16.0789C17.5346 16.0524 17.3473 16.0382 17.1499 16.0382C16.8913 16.0382 16.6511 16.0647 16.4353 16.1176C16.2174 16.1705 16.0302 16.2499 15.8734 16.3558C15.7166 16.4616 15.5945 16.598 15.509 16.7589C15.4235 16.9217 15.3807 17.1131 15.3807 17.335V17.4857C15.3807 17.7951 15.4479 18.0455 15.5823 18.2348C15.7166 18.4242 15.906 18.5646 16.1523 18.6522C16.3986 18.7397 16.6938 18.7845 17.0379 18.7845C17.3819 18.7845 17.6894 18.7519 17.9255 18.6909C18.1617 18.6278 18.3408 18.5361 18.463 18.416C18.5851 18.2939 18.6442 18.1514 18.6442 17.9824V17.9376H16.9931V17.1599H19.7048V19.5663H19.0513L18.9455 19.0207C18.7867 19.1673 18.6014 19.2853 18.3897 19.3749C18.1779 19.4645 17.9459 19.5317 17.6934 19.5765C17.441 19.6212 17.1723 19.6416 16.8872 19.6416H16.8852Z" fill="#00457C"/>
</g>
<defs>
<clipPath id="clip0_597_23434">
<rect width="36.7683" height="22" fill="white" transform="translate(0.370361 0.5)"/>
</clipPath>
</defs>
</svg>
