<svg xmlns="http://www.w3.org/2000/svg" xmlns:xlink="http://www.w3.org/1999/xlink" width="52" height="52" viewBox="0 0 52 52">
    <defs>
        <circle id="b" cx="20" cy="20" r="20"/>
        <filter id="a" width="150%" height="150%" x="-25%" y="-20%" filterUnits="objectBoundingBox">
            <feOffset dy="2" in="SourceAlpha" result="shadowOffsetOuter1"/>
            <feGaussianBlur in="shadowOffsetOuter1" result="shadowBlurOuter1" stdDeviation="3"/>
            <feColorMatrix in="shadowBlurOuter1" values="0 0 0 0 0.568627451 0 0 0 0 0.603921569 0 0 0 0 0.639215686 0 0 0 0.746886322 0"/>
        </filter>
    </defs>
    <g fill="none" fill-rule="evenodd">
        <g fill-rule="nonzero" transform="translate(6 4)">
            <use fill="#000" filter="url(#a)" xlink:href="#b"/>
            <use fill="#4A90E2" xlink:href="#b"/>
        </g>
        <path fill="#FFF" d="M26 32c-1.44 0-2.774-.36-4-1.08A8.084 8.084 0 0 1 19.08 28 7.755 7.755 0 0 1 18 24c0-1.44.36-2.774 1.08-4A8.084 8.084 0 0 1 22 17.08 7.755 7.755 0 0 1 26 16c1.44 0 2.774.36 4 1.08A8.084 8.084 0 0 1 32.92 20 7.755 7.755 0 0 1 34 24c0 1.44-.36 2.774-1.08 4A8.084 8.084 0 0 1 30 30.92 7.755 7.755 0 0 1 26 32zm0-14.452a6.26 6.26 0 0 0-3.226.871 6.506 6.506 0 0 0-2.355 2.355A6.26 6.26 0 0 0 19.55 24c0 1.161.29 2.237.87 3.226a6.506 6.506 0 0 0 2.355 2.355 6.26 6.26 0 0 0 3.226.87 6.26 6.26 0 0 0 3.226-.87 6.506 6.506 0 0 0 2.355-2.355A6.26 6.26 0 0 0 32.45 24a6.26 6.26 0 0 0-.87-3.226 6.506 6.506 0 0 0-2.355-2.355A6.26 6.26 0 0 0 26 17.55zm1.032 10.194a.373.373 0 0 1-.113.274.373.373 0 0 1-.274.113h-1.29a.373.373 0 0 1-.274-.113.373.373 0 0 1-.113-.274V24h-2.162a.354.354 0 0 1-.354-.242c-.065-.161-.043-.296.064-.403l3.194-3.194a.401.401 0 0 1 .29-.129c.108 0 .194.043.258.13l3.194 3.193c.129.107.16.242.096.403a.354.354 0 0 1-.354.242h-2.162v3.742z"/>
    </g>
</svg>
