<svg width="25" height="29" viewBox="0 0 25 29" fill="none" xmlns="http://www.w3.org/2000/svg">
<rect x="0.551514" y="3.31299" width="19.6224" height="24.1619" rx="3" fill="#A0A0A0"/>
<path d="M7.5893 11.4623H6.46073L4.15737 7.22949C4.23215 7.8604 4.27022 8.47363 4.27022 9.07055V11.4623H3.48022V6.53467H4.59927L6.91216 10.7743C6.88769 10.607 6.86049 10.3786 6.83194 10.0863C6.80338 9.79528 6.78979 9.50566 6.78979 9.22012V6.53467H7.5893V11.4623Z" fill="white"/>
<path d="M11.5365 6.72911C11.9499 6.85828 12.2871 7.10167 12.5468 7.45928C12.8065 7.81689 12.937 8.32134 12.937 8.96993C12.937 9.8959 12.6787 10.5431 12.162 10.9103C11.6453 11.2774 10.9913 11.4623 10.2013 11.4623H8.74365V6.53467H10.0789C10.6364 6.53467 11.1218 6.59857 11.5365 6.72775V6.72911ZM9.61931 7.05816V10.947H10.2584C10.7968 10.947 11.2265 10.8056 11.546 10.5214C11.8656 10.2372 12.026 9.7205 12.026 8.97129C12.026 8.44644 11.9431 8.0426 11.7772 7.76114C11.6113 7.47967 11.3978 7.29203 11.1381 7.19957C10.8784 7.10711 10.5698 7.05952 10.2122 7.05952H9.61931V7.05816Z" fill="white"/>
<path d="M16.849 11.4623L16.4166 10.2086H14.2452L13.8128 11.4623H12.9385L14.8095 6.53467H15.8809L17.7519 11.4623H16.849ZM14.4233 9.6865H16.2372L15.3343 7.06496L14.4219 9.6865H14.4233Z" fill="white"/>
<path d="M15.8541 13.1243H3.55344C3.10864 13.1243 2.74805 13.4849 2.74805 13.9297C2.74805 14.3745 3.10864 14.7351 3.55344 14.7351H15.8541C16.2989 14.7351 16.6595 14.3745 16.6595 13.9297C16.6595 13.4849 16.2989 13.1243 15.8541 13.1243Z" fill="white"/>
<path d="M17.172 16.6387H3.55344C3.10864 16.6387 2.74805 16.9993 2.74805 17.4441C2.74805 17.8889 3.10864 18.2495 3.55344 18.2495H17.172C17.6168 18.2495 17.9774 17.8889 17.9774 17.4441C17.9774 16.9993 17.6168 16.6387 17.172 16.6387Z" fill="white"/>
<path d="M17.172 20.0067H3.55345C3.10864 20.0067 2.74805 20.3673 2.74805 20.8121C2.74805 21.2569 3.10864 21.6175 3.55344 21.6175H17.172C17.6168 21.6175 17.9774 21.2569 17.9774 20.8121C17.9774 20.3673 17.6168 20.0067 17.172 20.0067Z" fill="white"/>
<path d="M17.172 23.5212H3.55344C3.10864 23.5212 2.74805 23.8818 2.74805 24.3266C2.74805 24.7714 3.10864 25.132 3.55344 25.132H17.172C17.6168 25.132 17.9774 24.7714 17.9774 24.3266C17.9774 23.8818 17.6168 23.5212 17.172 23.5212Z" fill="white"/>
<path d="M16.4398 28.5C12.2012 28.5 8.75195 25.0508 8.75195 20.8122C8.75195 16.5735 12.2012 13.1243 16.4398 13.1243C20.6785 13.1243 24.1277 16.5735 24.1277 20.8122C24.1277 25.0508 20.6785 28.5 16.4398 28.5Z" fill="white"/>
<path d="M16.5042 27.4577C20.2463 27.4577 23.2799 24.4824 23.2799 20.8122C23.2799 17.142 20.2463 14.1667 16.5042 14.1667C12.762 14.1667 9.72839 17.142 9.72839 20.8122C9.72839 24.4824 12.762 27.4577 16.5042 27.4577Z" fill="#00457C"/>
<path d="M14.1206 21.5002C14.1575 21.4563 14.1737 21.4309 14.1945 21.4078C15.2472 20.3551 16.3 19.3047 17.3504 18.2519C17.4658 18.1365 17.5974 18.0626 17.759 18.1088C17.8421 18.1319 17.9229 18.185 17.9853 18.245C18.1561 18.4043 18.32 18.5751 18.4862 18.7414C18.6894 18.9468 18.6894 19.1731 18.4862 19.3785C17.3735 20.4913 16.2607 21.6018 15.1502 22.7145C14.9171 22.9477 14.6839 23.1809 14.4484 23.4141C14.2337 23.6265 14.0144 23.6265 13.7997 23.4141C13.1025 22.7168 12.4053 22.0196 11.708 21.3247C11.491 21.1077 11.491 20.8861 11.708 20.6691C11.8697 20.5075 12.0313 20.3436 12.1952 20.182C12.3983 19.9811 12.6246 19.9811 12.8277 20.182C13.2387 20.5906 13.6473 20.9992 14.0559 21.4102C14.0767 21.4309 14.0929 21.4586 14.1229 21.5002H14.1206Z" fill="#0AA42C"/>
<path d="M16.9418 24.1113C16.7687 24.1113 16.6048 24.0351 16.4524 23.8827L14.3608 21.7934C14.0537 21.4864 14.0537 21.1193 14.3608 20.8122C14.3608 20.8122 14.7025 20.4706 14.8479 20.3251C15.0303 20.145 15.2081 20.1081 15.3258 20.1081C15.4435 20.1081 15.6236 20.1474 15.806 20.3274C16.1846 20.7061 16.5632 21.0824 16.9395 21.461L17.9207 20.4798C18.6156 19.7849 19.3105 19.0923 20.0031 18.3974C20.1532 18.245 20.3102 18.1735 20.4787 18.1735C20.5318 18.1735 20.5872 18.1804 20.6403 18.1965C20.7511 18.2289 20.8642 18.2958 20.9612 18.3835C21.0951 18.5082 21.2221 18.6375 21.3514 18.7668L21.4691 18.8845C21.7646 19.1823 21.7646 19.5517 21.4668 19.8495L17.429 23.8851C17.2789 24.0351 17.115 24.1113 16.9418 24.1113Z" fill="#00457C"/>
<path d="M16.9394 21.805C16.9764 21.7611 16.9925 21.7357 17.0133 21.7127C18.0661 20.6599 19.1188 19.6095 20.1692 18.5567C20.2847 18.4413 20.4163 18.3674 20.5779 18.4136C20.661 18.4367 20.7418 18.4898 20.8041 18.5498C20.975 18.7091 21.1389 18.8799 21.3051 19.0462C21.5082 19.2516 21.5082 19.4779 21.3051 19.6834C20.1923 20.7961 19.0796 21.9066 17.9691 23.0194C17.7359 23.2525 17.5027 23.4857 17.2673 23.7189C17.0526 23.9313 16.8332 23.9313 16.6185 23.7189C15.9213 23.0217 15.2241 22.3244 14.5269 21.6295C14.3099 21.4125 14.3099 21.1909 14.5269 20.9739C14.6885 20.8123 14.8501 20.6484 15.014 20.4868C15.2172 20.2859 15.4434 20.2859 15.6466 20.4868C16.0575 20.8954 16.4662 21.304 16.8748 21.715C16.8956 21.7357 16.9117 21.7634 16.9417 21.805H16.9394Z" fill="#0AA42C"/>
<path d="M15.1248 1.7491H13.7674V1.53823C13.7674 0.964202 13.3032 0.5 12.7291 0.5H7.91578C7.34175 0.5 6.87755 0.964202 6.87755 1.53823V1.7491H5.52009C5.23015 1.7491 4.99585 1.9834 4.99585 2.27334V4.39373C4.99585 4.68367 5.23015 4.91797 5.52009 4.91797H15.1234C15.4133 4.91797 15.6476 4.68367 15.6476 4.39373V2.27334C15.6476 1.9834 15.4133 1.7491 15.1234 1.7491H15.1248ZM9.69058 1.09892C9.69058 0.977381 9.7887 0.879269 9.91024 0.879269H10.7347C10.8562 0.879269 10.9543 0.977381 10.9543 1.09892V1.4328C10.9543 1.55434 10.8562 1.65245 10.7347 1.65245H9.91024C9.7887 1.65245 9.69058 1.55434 9.69058 1.4328V1.09892Z" fill="#00457C"/>
</svg>
