<svg width="68" height="81" viewBox="0 0 68 81" fill="none" xmlns="http://www.w3.org/2000/svg">
<g clip-path="url(#clip0_741_4200)">
<path d="M63.6002 33.7027C62.5798 33.7027 61.5594 33.7036 60.539 33.7027C59.7735 33.7017 59.21 33.2066 59.2109 32.5417C59.2119 31.8758 59.7716 31.3863 60.5456 31.3853C62.5864 31.3825 64.6262 31.3806 66.667 31.3844C67.4061 31.3854 67.9158 31.7786 67.9885 32.3841C68.0791 33.1396 67.5693 33.6951 66.7547 33.7017C65.7032 33.7112 64.6517 33.7036 63.6002 33.7036V33.7027Z" fill="#0AA42C"/>
<path d="M56.6362 23.6543C55.965 23.6175 55.5875 23.4082 55.4053 22.9611C55.2118 22.4867 55.2958 22.0377 55.6715 21.6633C56.6937 20.6419 57.7151 19.6186 58.7373 18.5971C59.215 18.1199 59.6879 17.636 60.1777 17.172C60.745 16.6344 61.3907 16.6363 61.8862 17.156C62.3223 17.6125 62.2987 18.301 61.7966 18.8074C60.3373 20.2797 58.8761 21.7501 57.3941 23.1997C57.1525 23.4355 56.8004 23.56 56.6352 23.6562L56.6362 23.6543Z" fill="#0AA42C"/>
<path d="M66.3823 24.8144C66.3635 25.1822 66.1511 25.5463 65.6999 25.734C63.7328 26.5555 61.7666 27.3779 59.791 28.1796C59.0896 28.4644 58.4638 28.2164 58.2127 27.6146C57.9418 26.9676 58.2212 26.3366 58.9622 26.0235C60.2327 25.4859 61.5136 24.9757 62.7898 24.4513C63.4713 24.1712 64.1443 23.8694 64.8324 23.6081C65.63 23.3053 66.3956 23.8552 66.3823 24.8135V24.8144Z" fill="#0AA42C"/>
<path d="M56.3257 35.8192C56.3323 33.7838 54.6426 32.1899 52.6746 32.1937C47.0903 32.2059 41.5071 32.1975 35.9228 32.1975C28.9076 32.1975 21.8924 32.1975 14.8772 32.1975C14.7101 32.1975 14.544 32.1975 14.3675 32.1975C14.3524 32.022 14.3354 31.9136 14.3354 31.806C14.3354 28.804 14.3259 25.8019 14.3401 22.7989C14.3458 21.553 14.5383 20.3269 14.9395 19.1451C16.2006 15.4282 18.5811 12.6845 22.1803 11.0859C25.5001 9.61079 28.9822 9.48912 32.4152 10.4804C37.1933 11.8602 40.2686 15.0867 41.5514 19.8865C41.9148 21.2455 41.9073 22.7103 42.0149 24.1297C42.1263 25.6067 43.1599 26.9026 44.6371 27.0997C45.6886 27.2402 46.7685 27.194 47.8351 27.194C49.7182 27.194 51.17 25.8632 51.2332 23.993C51.3021 21.9671 51.2313 19.9393 50.832 17.9398C49.8957 13.2523 47.6831 9.26748 44.1953 5.99851C40.9417 2.94929 37.0999 1.06769 32.7078 0.324489C30.2272 -0.0952149 27.7239 -0.0508867 25.2273 0.133972C22.1624 0.361272 19.2815 1.26198 16.598 2.74368C13.1583 4.64319 10.3973 7.27271 8.33771 10.6237C6.37341 13.8191 5.27469 17.2956 5.12838 21.038C5.03776 23.3771 5.0944 25.7208 5.08779 28.0627C5.08402 29.4123 5.08779 30.762 5.08779 32.1956C4.58374 32.1956 4.1467 32.1937 3.70967 32.1956C1.53016 32.205 0.0142216 33.7244 0.0142216 35.9003C0.0142216 41.778 -0.0254231 47.6567 0.0378196 53.5344C0.056698 55.2991 0.227547 57.0864 0.55792 58.8199C1.51033 63.8243 3.76725 68.2033 7.20972 71.9684C10.1661 75.2025 13.6812 77.6103 17.776 79.1788C22.6069 81.0293 27.6003 81.3367 32.6739 80.6841C36.2504 80.2238 39.5909 79.0166 42.7021 77.1888C45.0354 75.8184 47.1205 74.1329 48.9584 72.1523C50.8726 70.0896 52.4405 67.7883 53.6544 65.2447C55.1675 62.0738 56.0689 58.7331 56.2445 55.235C56.3719 52.696 56.2926 50.1457 56.3002 47.6011C56.3115 43.6728 56.3162 39.7446 56.3285 35.8154L56.3257 35.8192Z" fill="black"/>
</g>
<defs>
<clipPath id="clip0_741_4200">
<rect width="68" height="81" fill="white"/>
</clipPath>
</defs>
</svg>
