<svg width="19" height="24" viewBox="0 0 19 24" fill="none" xmlns="http://www.w3.org/2000/svg">
<path d="M7.43446 2.61772C7.53131 1.2141 8.86218 0.129653 10.2957 0.488034L10.6878 0.586067C11.3815 0.759478 11.9988 1.27022 12.2049 2.03296C12.5355 3.25697 13.0048 5.80052 12.2991 8.79726C12.5029 8.76937 12.726 8.7431 12.9633 8.72152C14.0321 8.62437 15.4665 8.61461 16.7372 9.03818C17.5146 9.29731 18.2286 10.0586 18.5364 10.9467C18.8132 11.7452 18.7774 12.6895 18.1855 13.5466C18.2736 13.7241 18.3413 13.9094 18.393 14.0905C18.5088 14.4958 18.5625 14.9414 18.5625 15.3747C18.5625 15.808 18.5088 16.2536 18.393 16.6589C18.3352 16.8611 18.2576 17.0685 18.1539 17.2645C18.4063 17.8446 18.3136 18.493 18.149 18.9869C17.9873 19.4721 17.7182 19.9447 17.416 20.3381C17.4971 20.5667 17.5312 20.8063 17.5312 21.0348C17.5312 21.4937 17.3972 21.9725 17.1512 22.403C16.6484 23.2829 15.6556 23.9997 14.25 23.9997H9C8.09304 23.9997 7.39641 23.8778 6.80151 23.6729C6.21265 23.4701 5.75448 23.1956 5.34532 22.9462L5.27391 22.9027C4.5177 22.441 3.77611 21.9883 2.17188 21.8182C1.02349 21.6964 0 20.7673 0 19.5007V13.4992C0 12.2238 1.02824 11.3511 2.03539 11.0764C3.30877 10.729 4.39636 9.89613 5.23319 8.96098C6.07342 8.02201 6.60465 7.0428 6.79136 6.50408C7.09036 5.64136 7.32562 4.19511 7.43446 2.61772Z" fill="#2E58D6"/>
</svg>
