<svg xmlns="http://www.w3.org/2000/svg" width="19" height="15" viewBox="0 0 19 15">
    <g fill="none" fill-rule="evenodd">
        <g stroke="#cccccc" transform="translate(10 6)">
            <path stroke-linecap="square" d="M6.797 2.203L2.013 6.987"/>
            <circle cx="4.5" cy="4.5" r="3.75" stroke-width="1.5"/>
        </g>
        <path fill="#cccccc" d="M6.562 8.437c-.761 0-1.464-.19-2.109-.57a4.3 4.3 0 0 1-1.538-1.539 4.072 4.072 0 0 1-.571-2.11c0-.761.19-1.464.571-2.109A4.3 4.3 0 0 1 4.453.571 4.072 4.072 0 0 1 6.563 0c.761 0 1.464.19 2.109.571A4.3 4.3 0 0 1 10.21 2.11c.38.645.571 1.348.571 2.11 0 .761-.19 1.465-.571 2.11a4.3 4.3 0 0 1-1.538 1.537 4.072 4.072 0 0 1-2.11.571zm0-7.03c-.78 0-1.445.273-1.992.82a2.712 2.712 0 0 0-.82 1.992c0 .781.273 1.445.82 1.992.547.547 1.211.82 1.992.82.782 0 1.446-.273 1.993-.82.547-.547.82-1.211.82-1.992 0-.782-.273-1.446-.82-1.992a2.712 2.712 0 0 0-1.993-.82zM1.406 13.593h8.262c.312.527.693.996 1.143 1.406H1.406c-.39 0-.722-.137-.996-.41a1.356 1.356 0 0 1-.41-.996v-.762c0-.703.176-1.357.527-1.963a3.893 3.893 0 0 1 1.436-1.435 3.842 3.842 0 0 1 1.963-.528c.254 0 .586.069.996.205.273.078.498.137.674.176.293.059.61.088.952.088.342 0 .659-.03.952-.088.176-.039.4-.098.674-.176.43-.136.781-.205 1.054-.205a6.049 6.049 0 0 0-.292 1.436l-.235.088c-.742.234-1.445.351-2.11.351a6.736 6.736 0 0 1-2.08-.351c-.292-.078-.488-.118-.585-.118-.684 0-1.275.25-1.773.748s-.747 1.088-.747 1.772v.762z"/>
    </g>
</svg>
