<svg xmlns="http://www.w3.org/2000/svg" width="18" height="18" viewBox="0 0 18 18">
    <path fill="#4A90E2" fill-rule="evenodd" d="M15.75 0c.61 0 1.137.223 1.582.668.445.445.668.973.668 1.582v10.125c0 .61-.223 1.137-.668 1.582-.445.445-.973.668-1.582.668h-5.063L6.293 17.93a.465.465 0 0 1-.264.07.387.387 0 0 1-.281-.123.407.407 0 0 1-.123-.299v-2.953H2.25c-.61 0-1.137-.223-1.582-.668C.223 13.512 0 12.984 0 12.375V2.25C0 1.64.223 1.113.668.668 1.113.223 1.641 0 2.25 0h13.5zm.563 12.375V2.25a.548.548 0 0 0-.159-.404.548.548 0 0 0-.404-.159H2.25a.548.548 0 0 0-.404.159.548.548 0 0 0-.159.404v10.125c0 .164.053.299.159.404.105.106.24.159.404.159h5.063v2.109l2.812-2.11h5.625a.548.548 0 0 0 .404-.158.548.548 0 0 0 .159-.404z"/>
</svg>
