<?xml version="1.0" encoding="UTF-8"?>
<svg width="248px" height="149px" viewBox="0 0 248 149" version="1.1" xmlns="http://www.w3.org/2000/svg" xmlns:xlink="http://www.w3.org/1999/xlink">
    <!-- Generator: sketchtool 50.2 (55047) - http://www.bohemiancoding.com/sketch -->
    <title>0927C91B-6648-4837-BFC8-0B003AFC195B</title>
    <desc>Created with sketchtool.</desc>
    <defs>
        <path d="M47,70.5499032 C54.6991089,66.3700124 63.495576,64 72.8374766,64 C82.3111104,64 91.2238196,66.4373243 99,70.7278073 L73.0889521,96.6388552 L47,70.5499032 Z" id="path-1"></path>
    </defs>
    <g id="Page-1" stroke="none" stroke-width="1" fill="none" fill-rule="evenodd">
        <g id="Dashboard---Initial---NEW-Buyer" transform="translate(-952.000000, -267.000000)">
            <g id="Match-Me-Illustration" transform="translate(952.000000, 267.000000)">
                <g id="Group-4" transform="translate(46.000000, 13.000000)">
                    <ellipse id="Oval-2" fill-opacity="0.203153306" fill="#00447C" cx="73.5" cy="119.5" rx="73.5" ry="16.5"></ellipse>
                    <path d="M122,112.103619 C122,84.984439 100.061953,63 73,63 C45.9380473,63 24,84.984439 24,112.103619 C24,126.632127 122,126.632127 122,112.103619 Z" id="Oval" stroke="#00447C" stroke-width="2" fill="#4A90E2"></path>
                    <mask id="mask-2" fill="white">
                        <use xlink:href="#path-1"></use>
                    </mask>
                    <use id="Combined-Shape" stroke="#00447C" stroke-width="2" fill="#F6F7FB" xlink:href="#path-1"></use>
                    <path d="M54,12 L98,12 L98,55 C98,67.1502645 88.1502645,77 76,77 L76,77 C63.8497355,77 54,67.1502645 54,55 L54,12 Z" id="Rectangle-9-Copy" fill-opacity="0.200124547" fill="#00447C" mask="url(#mask-2)"></path>
                    <circle id="Oval-4" stroke="#00447C" fill="#F4F4F4" cx="52.5" cy="38.5" r="5.5"></circle>
                    <circle id="Oval-4-Copy-2" fill="#BEC4CB" cx="52.5" cy="38.5" r="2.5"></circle>
                    <circle id="Oval-4-Copy" stroke="#00447C" fill="#F4F4F4" cx="94.5" cy="38.5" r="5.5"></circle>
                    <circle id="Oval-4-Copy-3" fill="#BEC4CB" cx="94.5" cy="38.5" r="2.5"></circle>
                    <path d="M53,14 L53,53 C53,64.045695 61.954305,73 73,73 C84.045695,73 93,64.045695 93,53 L93,14 L53,14 Z" id="Rectangle-9" stroke="#00447C" stroke-width="2" fill="#F6F7FB"></path>
                    <rect id="Rectangle-23" fill="#BEC4CB" x="70" y="33" width="6" height="16" rx="3"></rect>
                    <circle id="Oval-7" fill="#00447C" cx="64" cy="36" r="3"></circle>
                    <circle id="Oval-7-Copy" fill="#00447C" cx="82" cy="36" r="3"></circle>
                    <path d="M57.1875,17.4516129 L57.1875,39.0041931 C53.2179534,39.0041931 50,35.7862397 50,31.8166931 L50,16.7741935 L50,16 C50,10.4771525 54.4771525,6 60,6 C60.5776531,2.55213306 63.5560027,0.0223749908 67.0519034,0.0102364465 L70,0 L96,0 C96,4.95257067 93.9369888,9.42329927 90.6234422,12.5997101 C90.9880279,12.4421497 91.3900677,12.3548387 91.8125,12.3548387 L92.40625,12.3548387 C94.3910233,12.3548387 96,13.9638154 96,15.9485887 L96,31.8173383 C96,35.786885 92.7820466,39.0048383 88.8125,39.0048383 L88.8125,15.3548387 C88.8125,14.7769223 88.9759123,14.2371728 89.2590508,13.7792763 C86.3023762,16.0808113 82.5854656,17.4516129 78.5483871,17.4516129 L57.1875,17.4516129 Z" id="Combined-Shape" stroke="#00447C" stroke-width="2" fill="#BEC4CB" transform="translate(73.000000, 19.502419) scale(-1, 1) translate(-73.000000, -19.502419) "></path>
                </g>
                <path d="M87.0566406,63.5273438 C53.9591123,67.2316737 68.3447913,86.6971925 44.0429688,85.0126953" id="Path-7" stroke="#81DB6D" stroke-linecap="round" stroke-dasharray="4"></path>
                <g id="Group-13" transform="translate(158.000000, 0.000000)">
                    <rect id="Rectangle-17" stroke="#00447C" fill="#F6F7FB" x="0.5" y="0.5" width="39" height="22"></rect>
                    <rect id="Rectangle-26" fill="#4A90E2" x="4" y="12" width="16" height="6"></rect>
                    <polygon id="Rectangle-19" fill="#4A90E2" points="5.75 4 7.25 4 8 12 5 12"></polygon>
                    <polygon id="Rectangle-19-Copy" fill="#4A90E2" points="9.75 4 11.25 4 12 12 9 12"></polygon>
                    <polygon id="Rectangle-25" fill="#4A90E2" points="13 8 19 7 19 12 13 12"></polygon>
                    <rect id="Rectangle-20-Copy-6" fill="#F6F7FB" x="4" y="6" width="12" height="1"></rect>
                    <rect id="Rectangle-20-Copy-4" fill="#F6F7FB" x="15" y="10" width="2" height="2"></rect>
                    <rect id="Rectangle-18" fill="#BEC4CB" x="23" y="10" width="5" height="2"></rect>
                    <rect id="Rectangle-18-Copy-2" fill="#BEC4CB" x="23" y="13" width="13" height="2"></rect>
                    <rect id="Rectangle-18-Copy-3" fill="#BEC4CB" x="23" y="16" width="13" height="2"></rect>
                    <rect id="Rectangle-18-Copy" fill="#BEC4CB" x="29" y="10" width="5" height="2"></rect>
                </g>
                <g id="Group-13-Copy" transform="translate(208.000000, 73.000000)">
                    <rect id="Rectangle-17" stroke="#00447C" fill="#F6F7FB" x="0.5" y="0.5" width="39" height="22"></rect>
                    <rect id="Rectangle-26" fill="#4A90E2" x="4" y="12" width="16" height="6"></rect>
                    <polygon id="Rectangle-19" fill="#4A90E2" points="5.75 4 7.25 4 8 12 5 12"></polygon>
                    <polygon id="Rectangle-19-Copy" fill="#4A90E2" points="9.75 4 11.25 4 12 12 9 12"></polygon>
                    <polygon id="Rectangle-25" fill="#4A90E2" points="13 8 19 7 19 12 13 12"></polygon>
                    <rect id="Rectangle-20-Copy-6" fill="#F6F7FB" x="4" y="6" width="12" height="1"></rect>
                    <rect id="Rectangle-20-Copy-4" fill="#F6F7FB" x="15" y="10" width="2" height="2"></rect>
                    <rect id="Rectangle-18" fill="#BEC4CB" x="23" y="10" width="5" height="2"></rect>
                    <rect id="Rectangle-18-Copy-2" fill="#BEC4CB" x="23" y="13" width="13" height="2"></rect>
                    <rect id="Rectangle-18-Copy-3" fill="#BEC4CB" x="23" y="16" width="13" height="2"></rect>
                    <rect id="Rectangle-18-Copy" fill="#BEC4CB" x="29" y="10" width="5" height="2"></rect>
                </g>
                <g id="Group-13-Copy-2" transform="translate(3.000000, 2.000000)">
                    <rect id="Rectangle-17" stroke="#00447C" fill="#F6F7FB" x="0.5" y="0.5" width="39" height="22"></rect>
                    <rect id="Rectangle-26" fill="#4A90E2" x="4" y="12" width="16" height="6"></rect>
                    <polygon id="Rectangle-19" fill="#4A90E2" points="5.75 4 7.25 4 8 12 5 12"></polygon>
                    <polygon id="Rectangle-19-Copy" fill="#4A90E2" points="9.75 4 11.25 4 12 12 9 12"></polygon>
                    <polygon id="Rectangle-25" fill="#4A90E2" points="13 8 19 7 19 12 13 12"></polygon>
                    <rect id="Rectangle-20-Copy-6" fill="#F6F7FB" x="4" y="6" width="12" height="1"></rect>
                    <rect id="Rectangle-20-Copy-4" fill="#F6F7FB" x="15" y="10" width="2" height="2"></rect>
                    <rect id="Rectangle-18" fill="#BEC4CB" x="23" y="10" width="5" height="2"></rect>
                    <rect id="Rectangle-18-Copy-2" fill="#BEC4CB" x="23" y="13" width="13" height="2"></rect>
                    <rect id="Rectangle-18-Copy-3" fill="#BEC4CB" x="23" y="16" width="13" height="2"></rect>
                    <rect id="Rectangle-18-Copy" fill="#BEC4CB" x="29" y="10" width="5" height="2"></rect>
                </g>
                <g id="Group-13-Copy-3" transform="translate(0.000000, 73.000000)">
                    <rect id="Rectangle-17" stroke="#00447C" fill="#F6F7FB" x="0.5" y="0.5" width="39" height="22"></rect>
                    <rect id="Rectangle-26" fill="#4A90E2" x="4" y="12" width="16" height="6"></rect>
                    <polygon id="Rectangle-19" fill="#4A90E2" points="5.75 4 7.25 4 8 12 5 12"></polygon>
                    <polygon id="Rectangle-19-Copy" fill="#4A90E2" points="9.75 4 11.25 4 12 12 9 12"></polygon>
                    <polygon id="Rectangle-25" fill="#4A90E2" points="13 8 19 7 19 12 13 12"></polygon>
                    <rect id="Rectangle-20-Copy-6" fill="#F6F7FB" x="4" y="6" width="12" height="1"></rect>
                    <rect id="Rectangle-20-Copy-4" fill="#F6F7FB" x="15" y="10" width="2" height="2"></rect>
                    <rect id="Rectangle-18" fill="#BEC4CB" x="23" y="10" width="5" height="2"></rect>
                    <rect id="Rectangle-18-Copy-2" fill="#BEC4CB" x="23" y="13" width="13" height="2"></rect>
                    <rect id="Rectangle-18-Copy-3" fill="#BEC4CB" x="23" y="16" width="13" height="2"></rect>
                    <rect id="Rectangle-18-Copy" fill="#BEC4CB" x="29" y="10" width="5" height="2"></rect>
                </g>
                <path d="M152.655273,59.0751953 C174.395489,56.7468261 170.984696,49.1026074 175.360352,26.21875" id="Path-4" stroke="#81DB6D" stroke-linecap="round" stroke-dasharray="4"></path>
                <path d="M153.648438,62.7685547 C186.161188,63.8334281 175.968258,83.8601659 203.668945,86.1230469" id="Path-5" stroke="#81DB6D" stroke-linecap="round" stroke-dasharray="4"></path>
                <path d="M86.4296875,60.5175781 C58.1460436,52.9794436 76.9357435,20.8963558 45.9287109,13.4052734" id="Path-6" stroke="#81DB6D" stroke-linecap="round" stroke-dasharray="4"></path>
            </g>
        </g>
    </g>
</svg>