<svg xmlns="http://www.w3.org/2000/svg" width="17" height="16" viewBox="0 0 17 16">
    <path fill="#2E58D6" fill-rule="evenodd" d="M4.183 15.84c-1.166 0-2.137-.384-2.914-1.152C.446 13.941.023 13.056 0 12.032c-.023-1.024.457-2.037 1.44-3.04l8.503-7.936c.914-.853 1.908-1.141 2.983-.864.503.128.954.379 1.354.752.4.373.669.795.806 1.264.297 1.024-.012 1.963-.926 2.816l-8.126 7.584c-.457.427-.96.672-1.508.736-.549.043-1.006-.107-1.372-.448-.343-.256-.497-.65-.463-1.184.035-.533.303-1.024.806-1.472L9.19 4.896c.274-.277.56-.277.857 0 .297.277.297.544 0 .8l-5.692 5.312c-.503.47-.617.843-.343 1.12a.591.591 0 0 0 .412.096c.274-.043.537-.181.788-.416l8.126-7.584c.572-.533.766-1.11.583-1.728-.183-.64-.617-1.045-1.303-1.216-.617-.15-1.234.043-1.851.576L2.297 9.76c-.754.81-1.12 1.573-1.097 2.288.023.715.32 1.339.891 1.872.572.512 1.24.779 2.006.8.766.021 1.572-.31 2.417-.992l8.503-7.904c.274-.256.56-.256.857 0 .297.235.297.49 0 .768l-8.503 7.936c-.937.875-2 1.312-3.188 1.312z"/>
</svg>
