<svg xmlns="http://www.w3.org/2000/svg" width="45" height="57" viewBox="0 0 45 57">
    <g fill="none" fill-rule="evenodd">
        <path fill="#4A90E2" fill-rule="nonzero" d="M34 2L42 9 42 10 35 10 34 9z"/>
        <path fill="#FFF" stroke="#00447C" stroke-width="2" d="M33.522 1.188H1.932v53.894h41.135V9.937h-7.545c-.552 0-1.052-.223-1.414-.585-.362-.362-.586-.862-.586-1.415v-6.75z"/>
        <path fill="#00447C" fill-opacity=".104" fill-rule="nonzero" d="M35 11h8v2h-6c-1.105 0-2-.895-2-2z"/>
        <g transform="translate(6 10)">
            <ellipse cx="16.5" cy="17.696" stroke="#81DB6D" rx="16.5" ry="16.891"/>
            <ellipse cx="16.5" cy="17.696" stroke="#81DB6D" rx="10.214" ry="10.457"/>
            <path stroke="#81DB6D" stroke-linecap="square" stroke-width="2" d="M16.5 0L16.5 36.231"/>
            <g>
                <path stroke="#81DB6D" stroke-linecap="square" d="M1.571 2.413L1.571 29.761" transform="rotate(-45 10.978 -1.13)"/>
                <path fill="#81DB6D" d="M1.571 0L3.143 3.217 0 3.217zM1.571 32.174L0 28.957 3.143 28.957z" transform="rotate(-45 10.978 -1.13)"/>
            </g>
            <g>
                <path stroke="#81DB6D" stroke-linecap="square" d="M1.516 1.788L1.516 17.615" transform="rotate(45 -.674 31.694)"/>
                <path fill="#81DB6D" d="M1.571 0L3.143 1.439 0 1.439zM1.571 18.705L0 17.266 3.143 17.266z" transform="rotate(45 -.674 31.694)"/>
            </g>
        </g>
        <path fill-rule="nonzero" stroke="#00447C" stroke-linecap="round" stroke-width="2" d="M34 1.5L43 9.5"/>
    </g>
</svg>
