<svg width="64" height="64" viewBox="0 0 64 64" fill="none" xmlns="http://www.w3.org/2000/svg">
    <rect width="64" height="64" rx="32" fill="#2245AE"/>
    <path fill-rule="evenodd" clip-rule="evenodd" d="M48.667 23.6v6.795c0 .883-.69 1.598-1.54 1.598-.85 0-1.538-.716-1.538-1.598v-2.939L34.147 39.334a1.5 1.5 0 0 1-2.177 0l-5.942-6.174-8.046 8.351a1.514 1.514 0 0 1-1.095.489 1.51 1.51 0 0 1-1.103-.468 1.63 1.63 0 0 1-.45-1.144 1.63 1.63 0 0 1 .47-1.137l9.129-9.481a1.503 1.503 0 0 1 2.177 0l5.947 6.174L43.41 25.195h-2.829c-.85 0-1.54-.715-1.54-1.597 0-.883.69-1.598 1.54-1.598h6.546c.408 0 .8.168 1.088.468.289.3.45.708.45 1.132z" fill="#78D46A"/>
</svg>
