<svg width="991" height="133" viewBox="0 0 991 133" fill="none" xmlns="http://www.w3.org/2000/svg">
<path d="M0 130.358V2.22898H49.9345L76.1015 63.9582C77.0974 66.081 78.2292 68.871 79.5421 72.3585C80.8399 75.8461 82.198 79.5156 83.6316 83.367C85.0501 87.2184 86.3177 90.6453 87.4344 93.6173H88.7322C89.7282 90.8879 90.8902 87.7188 92.2634 84.11C93.6216 80.5012 94.9797 76.9075 96.3529 73.2986C97.7111 69.6898 98.8881 66.642 99.8841 64.1553L126.247 2.22898H174.884V130.358H142.952V56.877C142.952 54.5115 142.983 51.9035 143.043 49.0376C143.103 46.1718 143.194 43.3818 143.315 40.6372C143.435 37.9079 143.496 35.4818 143.496 33.3589H142.017C141.398 35.4818 140.568 37.9534 139.512 40.8192C138.455 43.685 137.429 46.5357 136.448 49.4015C135.452 52.2674 134.532 54.7541 133.672 56.8618L102.118 130.342H71.6799L40.1257 56.8618C38.8883 53.996 37.7112 51.115 36.5945 48.1885C35.4778 45.262 34.5271 42.5023 33.7122 39.8942C32.9124 37.2862 32.2032 35.1027 31.5694 33.3741H30.0905C30.2112 34.9965 30.3018 37.1042 30.3621 39.7123C30.4225 42.3203 30.4828 45.1255 30.5432 48.1127C30.6036 51.0998 30.6337 54.0263 30.6337 56.877V130.358H0Z" fill="#2E58D6"/>
<path d="M194.155 130.358V2.22898H317.218V27.5969H226.267V56.5131H307.937V82.063H226.267V130.373H194.155V130.358Z" fill="#2E58D6"/>
<path d="M398.329 132.602C372.585 132.602 353.254 127.128 340.321 116.195C327.389 105.263 320.93 88.6589 320.93 66.3994C320.93 51.858 324.235 39.6365 330.86 29.7501C337.484 19.8637 347.067 12.4338 359.637 7.46027C372.192 2.48675 387.268 -1.90735e-06 404.833 -1.90735e-06C415.97 -1.90735e-06 426.201 0.970439 435.558 2.89616C444.899 4.82188 453.032 7.77869 459.959 11.7514C466.885 15.7242 472.212 20.6977 475.925 26.672C479.637 32.6463 481.493 39.6668 481.493 47.7488H450.316C450.316 43.6395 449.109 40.1672 446.694 37.3013C444.28 34.4355 441.005 32.1459 436.855 30.4021C432.705 28.6583 428.012 27.3846 422.746 26.581C417.479 25.7773 411.941 25.3679 406.131 25.3679C398.465 25.3679 391.403 26.1413 384.974 27.7031C378.546 29.2649 373.007 31.6152 368.359 34.7843C363.712 37.9534 360.135 41.9716 357.6 46.8086C355.065 51.6608 353.797 57.3774 353.797 63.9733V68.4465C353.797 77.6505 355.774 85.0804 359.743 90.7363C363.696 96.3921 369.325 100.532 376.629 103.14C383.933 105.748 392.655 107.052 402.796 107.052C412.937 107.052 422.067 106.112 429.054 104.262C436.04 102.397 441.337 99.6674 444.929 96.0585C448.52 92.4497 450.316 88.1585 450.316 83.185V81.881H401.498V58.7572H481.689V130.373H462.388L459.235 114.148C454.526 118.5 449.048 122.018 442.816 124.687C436.569 127.355 429.702 129.357 422.218 130.661C414.733 131.965 406.78 132.617 398.359 132.617L398.329 132.602Z" fill="#2E58D6"/>
<line x1="552.689" y1="4.37114e-08" x2="552.689" y2="129" stroke="black" stroke-width="2"/>
<path d="M683.927 33.42V90H678.187V42.604L658.589 90H653.423L633.743 42.768V90H627.921V33.42H634.727L656.047 82.866L677.203 33.42H683.927ZM715.328 44.654C719.865 44.654 723.719 45.8293 726.89 48.18C730.115 50.5307 732.329 53.6467 733.532 57.528V45.228H739.19V90H733.532V77.7C732.329 81.5813 730.115 84.6973 726.89 87.048C723.719 89.3987 719.865 90.574 715.328 90.574C711.283 90.574 707.647 89.6447 704.422 87.786C701.251 85.9273 698.764 83.276 696.96 79.832C695.211 76.3333 694.336 72.2607 694.336 67.614C694.336 62.9127 695.211 58.84 696.96 55.396C698.764 51.8973 701.251 49.246 704.422 47.442C707.593 45.5833 711.228 44.654 715.328 44.654ZM716.804 49.738C711.775 49.738 707.729 51.3507 704.668 54.576C701.661 57.7467 700.158 62.0927 700.158 67.614C700.158 73.1353 701.661 77.5087 704.668 80.734C707.729 83.9047 711.775 85.49 716.804 85.49C719.975 85.49 722.817 84.752 725.332 83.276C727.901 81.8 729.897 79.7227 731.318 77.044C732.794 74.3107 733.532 71.1673 733.532 67.614C733.532 64.0607 732.794 60.9447 731.318 58.266C729.897 55.5327 727.901 53.428 725.332 51.952C722.817 50.476 719.975 49.738 716.804 49.738ZM771.978 84.916V90H766.648C762.329 90 759.104 88.9887 756.972 86.966C754.84 84.8887 753.774 81.4173 753.774 76.552V50.23H746.968V45.228H753.774V33.912H759.596V45.228H771.896V50.23H759.596V76.634C759.596 79.8047 760.17 81.9913 761.318 83.194C762.466 84.342 764.489 84.916 767.386 84.916H771.978ZM800.947 85.818C804.992 85.818 808.382 84.8067 811.115 82.784C813.848 80.7613 815.488 78.028 816.035 74.584H822.103C821.283 79.34 819.014 83.194 815.297 86.146C811.58 89.098 806.878 90.574 801.193 90.574C796.929 90.574 793.13 89.672 789.795 87.868C786.515 86.0093 783.946 83.358 782.087 79.914C780.228 76.4153 779.299 72.3153 779.299 67.614C779.299 62.9127 780.228 58.84 782.087 55.396C783.946 51.8973 786.515 49.246 789.795 47.442C793.13 45.5833 796.929 44.654 801.193 44.654C805.566 44.654 809.338 45.5833 812.509 47.442C815.734 49.246 818.167 51.6787 819.807 54.74C821.502 57.8013 822.349 61.136 822.349 64.744C822.349 66.2747 822.24 67.6687 822.021 68.926H784.957C785.012 72.698 785.777 75.8687 787.253 78.438C788.784 80.9527 790.752 82.8113 793.157 84.014C795.562 85.2167 798.159 85.818 800.947 85.818ZM801.193 49.328C798.296 49.328 795.644 49.9293 793.239 51.132C790.834 52.3347 788.866 54.1933 787.335 56.708C785.859 59.168 785.066 62.2567 784.957 65.974H816.609C816.828 62.3113 816.226 59.2227 814.805 56.708C813.384 54.1933 811.47 52.3347 809.065 51.132C806.66 49.9293 804.036 49.328 801.193 49.328ZM838.503 54.494C839.815 51.2687 841.92 48.7813 844.817 47.032C847.714 45.2827 851.24 44.408 855.395 44.408V50.64H853.509C849.19 50.64 845.61 51.8153 842.767 54.166C839.924 56.462 838.503 60.234 838.503 65.482V90H832.681V45.228H838.503V54.494ZM861.719 31.944C861.719 30.7413 862.101 29.7847 862.867 29.074C863.687 28.3633 864.725 28.008 865.983 28.008C867.24 28.008 868.251 28.3633 869.017 29.074C869.782 29.7847 870.165 30.7413 870.165 31.944C870.165 33.092 869.782 34.0213 869.017 34.732C868.251 35.4427 867.24 35.798 865.983 35.798C864.725 35.798 863.687 35.4427 862.867 34.732C862.101 34.0213 861.719 33.092 861.719 31.944ZM868.853 45.228V90H863.031V45.228H868.853ZM900.148 44.654C904.686 44.654 908.54 45.8293 911.71 48.18C914.936 50.5307 917.15 53.6467 918.352 57.528V45.228H924.01V90H918.352V77.7C917.15 81.5813 914.936 84.6973 911.71 87.048C908.54 89.3987 904.686 90.574 900.148 90.574C896.103 90.574 892.468 89.6447 889.242 87.786C886.072 85.9273 883.584 83.276 881.78 79.832C880.031 76.3333 879.156 72.2607 879.156 67.614C879.156 62.9127 880.031 58.84 881.78 55.396C883.584 51.8973 886.072 49.246 889.242 47.442C892.413 45.5833 896.048 44.654 900.148 44.654ZM901.624 49.738C896.595 49.738 892.55 51.3507 889.488 54.576C886.482 57.7467 884.978 62.0927 884.978 67.614C884.978 73.1353 886.482 77.5087 889.488 80.734C892.55 83.9047 896.595 85.49 901.624 85.49C904.795 85.49 907.638 84.752 910.152 83.276C912.722 81.8 914.717 79.7227 916.138 77.044C917.614 74.3107 918.352 71.1673 918.352 67.614C918.352 64.0607 917.614 60.9447 916.138 58.266C914.717 55.5327 912.722 53.428 910.152 51.952C907.638 50.476 904.795 49.738 901.624 49.738ZM942.284 29.32V90H936.462V29.32H942.284ZM968.25 44.654C973.115 44.654 977.024 45.9387 979.976 48.508C982.928 51.0773 984.732 54.5487 985.388 58.922H979.894C979.566 56.0247 978.363 53.6467 976.286 51.788C974.263 49.8747 971.53 48.918 968.086 48.918C965.134 48.918 962.811 49.656 961.116 51.132C959.476 52.5533 958.656 54.4667 958.656 56.872C958.656 58.676 959.175 60.1247 960.214 61.218C961.307 62.3113 962.647 63.1587 964.232 63.76C965.817 64.3067 967.949 64.8807 970.628 65.482C973.908 66.2473 976.532 67.04 978.5 67.86C980.523 68.6253 982.245 69.8553 983.666 71.55C985.087 73.2447 985.798 75.5407 985.798 78.438C985.798 81.9913 984.459 84.916 981.78 87.212C979.156 89.4533 975.657 90.574 971.284 90.574C966.145 90.574 961.936 89.3167 958.656 86.802C955.376 84.2327 953.435 80.734 952.834 76.306H958.41C958.738 79.258 960.023 81.6633 962.264 83.522C964.505 85.3807 967.539 86.31 971.366 86.31C974.209 86.31 976.423 85.572 978.008 84.096C979.593 82.62 980.386 80.7067 980.386 78.356C980.386 76.4427 979.839 74.912 978.746 73.764C977.653 72.616 976.286 71.7687 974.646 71.222C973.061 70.6207 970.874 69.992 968.086 69.336C964.861 68.5707 962.264 67.8053 960.296 67.04C958.383 66.2747 956.743 65.0993 955.376 63.514C954.009 61.874 953.326 59.66 953.326 56.872C953.326 53.2093 954.665 50.2573 957.344 48.016C960.023 45.7747 963.658 44.654 968.25 44.654Z" fill="#666666"/>
</svg>
