<svg width="180" height="181" viewBox="0 0 180 181" fill="none" xmlns="http://www.w3.org/2000/svg">
<rect y="0.991211" width="180" height="180" rx="32" fill="#2E58D6"/>
<path d="M22 108.966V73.0088H36.0985L43.4864 90.332C43.7676 90.9277 44.0872 91.7107 44.4579 92.6894C44.8243 93.6681 45.2077 94.6979 45.6125 95.7787C46.013 96.8596 46.3709 97.8212 46.6862 98.6553H47.0526C47.3338 97.8893 47.6619 97 48.0496 95.9872C48.433 94.9745 48.8165 93.966 49.2042 92.9532C49.5877 91.9405 49.92 91.0852 50.2012 90.3873L57.6446 73.0088H71.3766V108.966H62.3611V88.3448C62.3611 87.6809 62.3696 86.949 62.3867 86.1448C62.4037 85.3406 62.4293 84.5576 62.4634 83.7874C62.4974 83.0214 62.5145 82.3406 62.5145 81.7449H62.0969C61.9223 82.3406 61.6879 83.0342 61.3897 83.8384C61.0914 84.6427 60.8017 85.4427 60.5248 86.2469C60.2436 87.0512 59.9837 87.749 59.7408 88.3405L50.8318 108.962H42.2381L33.3291 88.3405C32.9797 87.5363 32.6474 86.7278 32.3321 85.9065C32.0168 85.0852 31.7484 84.3108 31.5183 83.5789C31.2925 82.847 31.0922 82.2342 30.9133 81.7491H30.4957C30.5298 82.2044 30.5554 82.7959 30.5724 83.5278C30.5895 84.2597 30.6065 85.0469 30.6235 85.8852C30.6406 86.7235 30.6491 87.5448 30.6491 88.3448V108.966H22Z" fill="white"/>
<path d="M76.8164 108.966V73.0088H111.562V80.1278H85.8831V88.2426H108.942V95.4128H85.8831V108.97H76.8164V108.966Z" fill="white"/>
<path d="M134.462 109.595C127.194 109.595 121.736 108.059 118.084 104.991C114.433 101.923 112.609 97.2634 112.609 91.0166C112.609 86.9358 113.542 83.5061 115.413 80.7316C117.283 77.9572 119.989 75.8721 123.538 74.4764C127.083 73.0807 131.339 72.3828 136.299 72.3828C139.443 72.3828 142.332 72.6551 144.973 73.1956C147.611 73.736 149.907 74.5658 151.863 75.6806C153.818 76.7955 155.322 78.1913 156.37 79.8678C157.419 81.5444 157.943 83.5146 157.943 85.7826H149.14C149.14 84.6295 148.799 83.655 148.118 82.8508C147.436 82.0465 146.511 81.404 145.34 80.9146C144.168 80.4253 142.843 80.0678 141.356 79.8423C139.869 79.6168 138.305 79.5019 136.665 79.5019C134.501 79.5019 132.507 79.7189 130.692 80.1572C128.877 80.5955 127.313 81.255 126.001 82.1444C124.688 83.0337 123.679 84.1614 122.963 85.5188C122.247 86.8805 121.889 88.4847 121.889 90.3358V91.5911C121.889 94.174 122.447 96.2591 123.568 97.8463C124.684 99.4335 126.273 100.595 128.335 101.327C130.398 102.059 132.86 102.425 135.723 102.425C138.587 102.425 141.164 102.161 143.137 101.642C145.11 101.119 146.605 100.353 147.619 99.3399C148.633 98.3272 149.14 97.1229 149.14 95.7272V95.3612H135.357V88.872H157.998V108.97H152.549L151.658 104.416C150.329 105.638 148.782 106.625 147.023 107.374C145.259 108.123 143.32 108.684 141.207 109.05C139.094 109.416 136.848 109.599 134.471 109.599L134.462 109.595Z" fill="white"/>
</svg>
