<?xml version="1.0" encoding="utf-8"?>
<!-- Generator: Adobe Illustrator 27.0.1, SVG Export Plug-In . SVG Version: 6.00 Build 0)  -->
<svg version="1.1" id="Layer_1" xmlns="http://www.w3.org/2000/svg" xmlns:xlink="http://www.w3.org/1999/xlink" x="0px" y="0px"
	 viewBox="0 0 576 512" style="enable-background:new 0 0 576 512;" xml:space="preserve">
<style type="text/css">
	.st0{fill:#A0A0A0;}
	.st1{fill:#00457C;}
	.st2{fill:#56C23E;}
	.st3{fill:#FFFFFF;}
</style>
<path class="st0" d="M0,64C0,28.7,28.7,0,64,0h160v128c0,17.7,14.3,32,32,32h128v38.6c-73.9,20.9-128,88.8-128,169.4
	c0,59.1,29.1,111.3,73.7,143.3c-3.2,0.5-6.4,0.7-9.7,0.7H64c-35.3,0-64-28.7-64-64V64z"/>
<polygon class="st1" points="384,128 256,128 256,0 "/>
<circle class="st1" cx="432" cy="368" r="144"/>
<circle class="st2" cx="432" cy="440" r="24"/>
<path class="st2" d="M368,321.6v6.4c0,8.8,7.2,16,16,16s16-7.2,16-16v-6.4c0-5.3,4.3-9.6,9.6-9.6h40.5c7.7,0,13.9,6.2,13.9,13.9
	c0,5.2-2.9,9.9-7.4,12.3l-32,16.8c-5.3,2.8-8.6,8.2-8.6,14.2V384c0,8.8,7.2,16,16,16s16-7.2,16-16v-5.1l23.5-12.3
	C486.6,358.7,496,343,496,326c0-25.4-20.6-45.9-45.9-45.9h-40.5c-23,0-41.6,18.6-41.6,41.6V321.6z"/>
<path class="st3" d="M238,231H63c-9.9,0-18-8.1-18-18v0c0-9.9,8.1-18,18-18h175c9.9,0,18,8.1,18,18v0C256,222.9,247.9,231,238,231z"
	/>
<path class="st3" d="M238,322H63c-9.9,0-18-8.1-18-18v0c0-9.9,8.1-18,18-18h175c9.9,0,18,8.1,18,18v0C256,313.9,247.9,322,238,322z"
	/>
<path class="st3" d="M238,413H63c-9.9,0-18-8.1-18-18v0c0-9.9,8.1-18,18-18h175c9.9,0,18,8.1,18,18v0C256,404.9,247.9,413,238,413z"
	/>
</svg>
