<svg xmlns="http://www.w3.org/2000/svg" width="17" height="17" viewBox="0 0 17 17">
    <path fill="#4A90E2" fill-rule="evenodd" d="M8.5 3.29c.914 0 1.69.32 2.33.96.64.64.96 1.417.96 2.33 0 .915-.32 1.692-.96 2.331-.64.64-1.416.96-2.33.96-.914 0-1.69-.32-2.33-.96-.64-.64-.96-1.416-.96-2.33 0-.914.32-1.691.96-2.331.64-.64 1.416-.96 2.33-.96zm0 4.936c.457 0 .845-.16 1.165-.48.32-.32.48-.708.48-1.165 0-.457-.16-.846-.48-1.166-.32-.32-.708-.48-1.165-.48-.457 0-.845.16-1.165.48-.32.32-.48.709-.48 1.166 0 .457.16.845.48 1.165.32.32.708.48 1.165.48zM8.5 0a8.24 8.24 0 0 1 4.25 1.148 8.589 8.589 0 0 1 3.102 3.102A8.24 8.24 0 0 1 17 8.5a8.24 8.24 0 0 1-1.148 4.25 8.589 8.589 0 0 1-3.102 3.102A8.24 8.24 0 0 1 8.5 17a8.24 8.24 0 0 1-4.25-1.148 8.589 8.589 0 0 1-3.102-3.102A8.24 8.24 0 0 1 0 8.5a8.24 8.24 0 0 1 1.148-4.25A8.589 8.589 0 0 1 4.25 1.148 8.24 8.24 0 0 1 8.5 0zm0 15.355c.845 0 1.645-.143 2.4-.429a6.94 6.94 0 0 0 2.056-1.216 2.764 2.764 0 0 0-1.011-.977 2.996 2.996 0 0 0-1.354-.394c-.709.228-1.4.342-2.074.342a6.734 6.734 0 0 1-2.073-.342 3.052 3.052 0 0 0-1.389.394c-.422.24-.76.565-1.01.977A6.94 6.94 0 0 0 6.1 14.926a6.716 6.716 0 0 0 2.399.429zm5.587-2.88A6.698 6.698 0 0 0 15.355 8.5a6.652 6.652 0 0 0-.926-3.427 6.913 6.913 0 0 0-2.502-2.502A6.652 6.652 0 0 0 8.5 1.645a6.652 6.652 0 0 0-3.427.926A6.913 6.913 0 0 0 2.57 5.073 6.652 6.652 0 0 0 1.645 8.5c0 1.462.423 2.788 1.268 3.976a4.766 4.766 0 0 1 1.594-1.303 4.359 4.359 0 0 1 2.005-.48c.091 0 .251.035.48.103.548.16 1.051.24 1.508.24.457 0 .96-.08 1.508-.24.229-.068.389-.102.48-.102.708 0 1.377.16 2.005.48.628.32 1.16.753 1.594 1.302z"/>
</svg>
