<svg xmlns="http://www.w3.org/2000/svg" width="14" height="16" viewBox="0 0 14 16">
    <path fill="#222" fill-rule="evenodd" d="M3.75 5.211V4.039c0-.098.034-.18.103-.249a.339.339 0 0 1 .249-.102h1.171c.098 0 .181.034.25.102a.339.339 0 0 1 .102.25V5.21c0 .098-.034.18-.103.249a.339.339 0 0 1-.249.103H4.102a.339.339 0 0 1-.25-.103.339.339 0 0 1-.102-.249zm5.273.352H7.852a.339.339 0 0 1-.25-.103.339.339 0 0 1-.102-.249V4.039c0-.098.034-.18.103-.249a.339.339 0 0 1 .249-.102h1.171c.098 0 .181.034.25.102a.339.339 0 0 1 .102.25V5.21c0 .098-.034.18-.103.249a.339.339 0 0 1-.249.103zm-3.75 2.812H4.102a.339.339 0 0 1-.25-.103.339.339 0 0 1-.102-.249V6.852c0-.098.034-.181.103-.25a.339.339 0 0 1 .249-.102h1.171c.098 0 .181.034.25.103a.339.339 0 0 1 .102.249v1.171c0 .098-.034.181-.103.25a.339.339 0 0 1-.249.102zm3.75 0H7.852a.339.339 0 0 1-.25-.103.339.339 0 0 1-.102-.249V6.852c0-.098.034-.181.103-.25a.339.339 0 0 1 .249-.102h1.171c.098 0 .181.034.25.103a.339.339 0 0 1 .102.249v1.171c0 .098-.034.181-.103.25a.339.339 0 0 1-.249.102zm-3.398 1.29v1.17c0 .099-.034.182-.103.25a.339.339 0 0 1-.249.103H4.102a.339.339 0 0 1-.25-.103.339.339 0 0 1-.102-.25v-1.17c0-.099.034-.182.103-.25a.339.339 0 0 1 .249-.102h1.171c.098 0 .181.034.25.102a.339.339 0 0 1 .102.25zm3.398 1.523H7.852a.339.339 0 0 1-.25-.103.339.339 0 0 1-.102-.25v-1.17c0-.099.034-.182.103-.25a.339.339 0 0 1 .249-.102h1.171c.098 0 .181.034.25.102a.339.339 0 0 1 .102.25v1.17c0 .099-.034.182-.103.25a.339.339 0 0 1-.249.103zm4.102 3.632v1.055H0V14.82c0-.097.034-.18.103-.249a.339.339 0 0 1 .249-.102h.586V1.579a.571.571 0 0 1 .19-.499.728.728 0 0 1 .513-.205h9.873c.175 0 .337.068.483.205.147.137.21.303.19.498v12.89h.586c.098 0 .181.035.25.103a.339.339 0 0 1 .102.25zm-10.781-.38h3.281v-1.963c0-.098.034-.181.103-.25a.339.339 0 0 1 .249-.102h1.171c.098 0 .181.034.25.103a.339.339 0 0 1 .102.249v1.962h3.31V2.311l-8.466-.03V14.44z"/>
</svg>
