<svg xmlns="http://www.w3.org/2000/svg" width="15" height="12" viewBox="0 0 15 12">
    <path fill="#222" fill-rule="evenodd" d="M5.273 0c.098 0 .181.034.25.103a.339.339 0 0 1 .102.249v.703c0 .097-.034.18-.103.249a.339.339 0 0 1-.249.102h-2.46c-.391 0-.723.137-.997.41-.273.274-.41.606-.41.996v5.625c0 .391.137.723.41.997.274.273.606.41.996.41h2.461c.098 0 .181.034.25.102a.339.339 0 0 1 .102.25v.702c0 .098-.034.181-.103.25a.339.339 0 0 1-.249.102h-2.46a2.712 2.712 0 0 1-1.993-.82A2.712 2.712 0 0 1 0 8.437V2.812C0 2.032.273 1.367.82.82A2.712 2.712 0 0 1 2.812 0h2.461zM9.58.557v.029a.364.364 0 0 1 .264-.117c.097 0 .176.029.234.088l4.834 4.804a.428.428 0 0 1 .088.264c0 .098-.03.176-.088.234l-4.834 4.805a.278.278 0 0 1-.234.117.364.364 0 0 1-.264-.117l-.557-.557a.364.364 0 0 1-.117-.263c0-.098.04-.176.117-.235l3.31-3.222H5.04a.339.339 0 0 1-.249-.103.339.339 0 0 1-.103-.249v-.82c0-.098.035-.18.103-.25a.339.339 0 0 1 .25-.102h7.294l-3.31-3.222a.278.278 0 0 1-.118-.235c0-.097.04-.185.117-.263L9.58.557z"/>
</svg>
