<svg xmlns="http://www.w3.org/2000/svg" width="15" height="16" viewBox="0 0 15 16">
    <path fill="#222" fill-rule="evenodd" d="M11.25 10.719c.684 0 1.313.166 1.89.498.576.332 1.03.786 1.362 1.362.332.576.498 1.206.498 1.89v.468a.9.9 0 0 1-.278.66.9.9 0 0 1-.66.278H.938a.901.901 0 0 1-.66-.278.9.9 0 0 1-.278-.66v-.468c0-.684.166-1.314.498-1.89a3.648 3.648 0 0 1 1.362-1.362 3.718 3.718 0 0 1 1.89-.498h.469c.43 0 .722.01.879.03.214.019.468.077.761.175a5.154 5.154 0 0 0 1.641.264c.566 0 1.113-.088 1.64-.264.294-.098.547-.156.762-.176.157-.02.45-.03.88-.03h.468zm2.344 3.75c0-.645-.23-1.197-.689-1.656a2.257 2.257 0 0 0-1.655-.688h-.527c-.352 0-.581.005-.689.015-.107.01-.259.044-.454.102a6.374 6.374 0 0 1-2.08.352 6.374 6.374 0 0 1-2.08-.352 2.5 2.5 0 0 0-.454-.102 9.826 9.826 0 0 0-.689-.015H3.75c-.645 0-1.196.23-1.655.688a2.257 2.257 0 0 0-.689 1.656h12.188zM7.5 10.25c-.84 0-1.621-.21-2.344-.63a4.654 4.654 0 0 1-1.714-1.714 4.585 4.585 0 0 1-.63-2.343c0-.84.21-1.622.63-2.344a4.654 4.654 0 0 1 1.714-1.714A4.585 4.585 0 0 1 7.5.875c.84 0 1.621.21 2.344.63.722.42 1.294.991 1.714 1.714.42.722.63 1.504.63 2.344 0 .84-.21 1.62-.63 2.343A4.654 4.654 0 0 1 9.844 9.62c-.723.42-1.504.63-2.344.63zm0-7.969c-.586 0-1.133.147-1.64.44a3.223 3.223 0 0 0-1.202 1.2 3.228 3.228 0 0 0-.44 1.642c0 .585.147 1.132.44 1.64.293.508.694.908 1.201 1.201.508.293 1.055.44 1.641.44.586 0 1.133-.147 1.64-.44a3.223 3.223 0 0 0 1.202-1.2c.293-.509.44-1.056.44-1.641 0-.586-.147-1.133-.44-1.641A3.223 3.223 0 0 0 9.14 2.72 3.228 3.228 0 0 0 7.5 2.28z"/>
</svg>
